<svg  xmlns="http://www.w3.org/2000/svg" xmlns:xlink="http://www.w3.org/1999/xlink" x="0px" y="0px"
	 width="15.705px" height="17.133px" viewBox="0 0 15.705 17.133" enable-background="new 0 0 15.705 17.133" xml:space="preserve">
  <path fill="#fff" d="M15.705,14.244c0-2.521-0.591-6.392-3.859-6.392c-0.346,0-1.807,1.551-3.993,1.551S4.205,7.853,3.859,7.853
	C0.591,7.853,0,11.723,0,14.244c0,1.807,1.204,2.889,2.979,2.889h9.748C14.5,17.133,15.705,16.051,15.705,14.244z M12.136,4.283
	C12.136,1.918,10.218,0,7.853,0S3.569,1.918,3.569,4.283s1.918,4.283,4.283,4.283S12.136,6.648,12.136,4.283z"/>
</svg>
