<svg  xmlns="http://www.w3.org/2000/svg" xmlns:xlink="http://www.w3.org/1999/xlink" x="0px" y="0px"
	 width="36.566px" height="29.707px" viewBox="0 0 36.566 29.707" enable-background="new 0 0 36.566 29.707" xml:space="preserve">
  <path fill="none" d="M3.787,11.426h5.766l5.356,11.872L3.787,11.426z M18.283,25.209l-6.23-13.783h12.461L18.283,25.209z
	 M9.606,9.141H3.43l5.142-6.855h4.678L9.606,9.141z M21.657,23.298l5.356-11.872h5.766L21.657,23.298z M12.195,9.141l3.642-6.855
	h4.892l3.643,6.855H12.195z M26.96,9.141l-3.643-6.855h4.678l5.142,6.855H26.96z M29.477,0.465C29.263,0.16,28.924,0,28.566,0H8
	C7.643,0,7.304,0.16,7.09,0.465L0.234,9.605c-0.34,0.428-0.304,1.053,0.071,1.463L17.444,29.35c0.214,0.232,0.518,0.357,0.839,0.357
	s0.625-0.125,0.839-0.357l17.139-18.281c0.375-0.41,0.411-1.035,0.071-1.463L29.477,0.465z"/>
</svg>
