<svg  xmlns="http://www.w3.org/2000/svg" xmlns:xlink="http://www.w3.org/1999/xlink" x="0px" y="0px"
	 width="44.57px" height="41.133px" viewBox="0 0 44.57 41.133" enable-background="new 0 0 44.57 41.133" xml:space="preserve">
  <path fill="none" d="M43.897,9.373c-0.401-0.536-0.964-0.911-1.58-1.152c0.027,0.482,0.027,1.018-0.133,1.526L34.15,36.178
	c-0.295,0.965-1.446,1.527-2.437,1.527H6.996c-1.473,0-3.32-0.321-3.856-1.875C2.926,35.241,2.952,35,3.167,34.679
	c0.241-0.321,0.669-0.401,1.018-0.401h23.271c3.4,0,4.097-0.911,5.355-5.035L40.149,4.98c0.374-1.258,0.214-2.517-0.482-3.481
	C38.997,0.563,37.872,0,36.614,0H16.235c-0.455,0-0.911,0.134-1.366,0.241l0.026-0.081c-3.4-0.964-3.615,2.705-4.739,4.365
	c-0.429,0.616-1.071,1.151-1.179,1.66c-0.08,0.482,0.188,0.938,0.135,1.393c-0.161,1.419-1.232,3.964-1.875,4.848
	c-0.402,0.535-0.991,0.803-1.178,1.419c-0.161,0.429,0.107,1.044,0.053,1.606c-0.134,1.259-1.071,3.643-1.794,4.874
	c-0.268,0.481-0.777,0.857-0.911,1.365c-0.134,0.456,0.134,1.045,0,1.554c-0.294,1.393-1.205,3.562-2.008,4.9
	c-0.429,0.723-0.991,1.179-1.098,1.821c-0.053,0.321,0.188,0.669,0.161,1.098c-0.027,0.643-0.134,1.179-0.188,1.714
	c-0.375,1.018-0.375,2.196,0.054,3.4c0.991,2.785,3.91,4.955,6.641,4.955h24.717c2.303,0,4.66-1.768,5.329-4.044l7.364-24.262
	C44.755,11.596,44.567,10.336,43.897,9.373z M15.405,9.426l0.563-1.714c0.16-0.481,0.669-0.856,1.124-0.856h16.282
	c0.481,0,0.75,0.375,0.589,0.856L33.4,9.426c-0.161,0.482-0.669,0.857-1.125,0.857H15.994C15.512,10.283,15.244,9.908,15.405,9.426z
	 M13.183,16.281l0.563-1.714c0.16-0.481,0.669-0.856,1.124-0.856h16.282c0.481,0,0.75,0.375,0.589,0.856l-0.563,1.714
	c-0.161,0.482-0.669,0.857-1.124,0.857H13.771C13.289,17.139,13.021,16.764,13.183,16.281z"/>
</svg>
