<svg  xmlns="http://www.w3.org/2000/svg" xmlns:xlink="http://www.w3.org/1999/xlink" x="0px" y="0px"
	 width="19.997px" height="19.988px" viewBox="0 0 19.997 19.988" enable-background="new 0 0 19.997 19.988" xml:space="preserve">
  <path fill="#fff" d="M19.602,15.705H0.395l-0.391,3.491c-0.022,0.201,0.045,0.402,0.179,0.558c0.134,0.145,0.335,0.234,0.535,0.234
	h18.561c0.201,0,0.401-0.089,0.536-0.234c0.134-0.156,0.2-0.357,0.178-0.558L19.602,15.705z M18.565,6.347
	c-0.045-0.357-0.346-0.636-0.714-0.636h-2.855v1.428c0,0.792-0.636,1.428-1.428,1.428S12.14,7.931,12.14,7.139V5.711H7.857v1.428
	c0,0.792-0.636,1.428-1.428,1.428S5.001,7.931,5.001,7.139V5.711H2.146c-0.368,0-0.669,0.279-0.714,0.636l-0.959,8.645h19.051
	L18.565,6.347z M14.282,4.283C14.282,1.918,12.364,0,9.999,0C7.634,0,5.715,1.918,5.715,4.283v2.855
	c0,0.391,0.324,0.714,0.714,0.714c0.391,0,0.714-0.323,0.714-0.714V4.283c0-1.573,1.283-2.855,2.855-2.855
	c1.573,0,2.855,1.283,2.855,2.855v2.855c0,0.391,0.324,0.714,0.714,0.714c0.391,0,0.714-0.323,0.714-0.714V4.283z"/>
</svg>
