<svg  xmlns="http://www.w3.org/2000/svg" xmlns:xlink="http://www.w3.org/1999/xlink" x="0px" y="0px"
	 width="41.133px" height="41.133px" viewBox="0 0 41.133 41.133" enable-background="new 0 0 41.133 41.133" xml:space="preserve">
  <path fill="none" d="M10.283,37.705V27.422H30.85v10.283H10.283z M34.277,37.705V26.564c0-1.419-1.151-2.57-2.57-2.57H9.427
	c-1.42,0-2.571,1.151-2.571,2.57v11.141H3.428V3.428h3.428v11.14c0,1.42,1.151,2.571,2.571,2.571h15.425
	c1.419,0,2.57-1.151,2.57-2.571V3.428c0.536,0,1.58,0.428,1.955,0.804l7.525,7.524c0.348,0.348,0.803,1.446,0.803,1.955v23.994
	H34.277z M23.994,12.854c0,0.455-0.401,0.857-0.856,0.857h-5.142c-0.455,0-0.857-0.402-0.857-0.857V4.284
	c0-0.455,0.402-0.856,0.857-0.856h5.142c0.455,0,0.856,0.401,0.856,0.856V12.854z M41.133,13.711c0-1.42-0.803-3.375-1.82-4.392
	L31.814,1.82C30.796,0.803,28.842,0,27.422,0H2.571C1.151,0,0,1.151,0,2.57v35.991c0,1.419,1.151,2.571,2.571,2.571h35.991
	c1.419,0,2.57-1.152,2.57-2.571V13.711z"/>
</svg>
