<svg xmlns="http://www.w3.org/2000/svg" xmlns:xlink="http://www.w3.org/1999/xlink" preserveAspectRatio="xMidYMid" width="55.094" height="45.12" viewBox="0 0 55.094 45.12">
  <defs>
    <style>
      .cls-1 {
        fill: #ff3a58;
        fill-rule: evenodd;
      }
    </style>
  </defs>
  <path d="M50.309,45.123 L8.385,45.123 C5.739,45.123 3.593,42.995 3.593,40.372 L3.593,17.634 C1.530,17.104 -0.000,15.263 -0.000,13.051 L-0.000,9.520 C-0.000,9.517 -0.000,9.516 -0.000,9.514 L-0.000,9.488 C-0.000,9.301 0.051,9.131 0.128,8.973 C0.134,8.963 0.143,8.956 0.149,8.946 C0.228,8.795 0.339,8.670 0.473,8.566 L8.654,0.454 C8.872,0.176 9.199,-0.015 9.583,-0.015 L9.608,-0.015 C9.610,-0.015 9.612,-0.015 9.615,-0.015 L16.795,-0.015 C16.797,-0.015 16.799,-0.015 16.802,-0.015 L23.982,-0.015 C23.984,-0.015 23.986,-0.015 23.989,-0.015 L31.169,-0.015 C31.171,-0.015 31.173,-0.015 31.176,-0.015 L38.355,-0.015 C38.358,-0.015 38.360,-0.015 38.363,-0.015 L50.309,-0.015 C52.955,-0.015 55.100,2.112 55.100,4.736 L55.100,4.736 L55.100,40.372 C55.100,42.995 52.955,45.123 50.309,45.123 ZM16.769,42.747 L16.769,42.747 L16.769,32.056 L11.978,32.056 L11.978,42.747 L11.978,42.747 L16.769,42.747 ZM2.396,13.051 C2.396,14.363 3.469,15.427 4.791,15.427 C6.114,15.427 7.187,14.363 7.187,13.051 L7.187,10.675 L2.396,10.675 L2.396,13.051 ZM10.039,2.361 L4.050,8.300 L7.928,8.300 L13.918,2.361 L10.039,2.361 ZM9.583,13.051 C9.583,14.363 10.656,15.427 11.978,15.427 C13.301,15.427 14.374,14.363 14.374,13.051 L14.374,10.675 L9.583,10.675 L9.583,13.051 ZM17.226,2.361 L11.237,8.300 L15.115,8.300 L21.104,2.361 L17.226,2.361 ZM16.769,13.051 C16.769,14.363 17.843,15.427 19.165,15.427 C20.488,15.427 21.561,14.363 21.561,13.051 L21.561,10.675 L16.769,10.675 L16.769,13.051 ZM24.413,2.361 L18.424,8.300 L22.302,8.300 L28.291,2.361 L24.413,2.361 ZM23.956,13.051 C23.956,14.363 25.030,15.427 26.352,15.427 C27.675,15.427 28.748,14.363 28.748,13.051 L28.748,10.675 L23.956,10.675 L23.956,13.051 ZM31.600,2.361 L25.611,8.300 L29.489,8.300 L35.478,2.361 L31.600,2.361 ZM37.133,4.001 L31.143,9.940 L31.143,13.051 C31.143,15.675 28.998,17.803 26.352,17.803 C24.914,17.803 23.637,17.160 22.759,16.164 C21.881,17.160 20.604,17.803 19.165,17.803 C17.727,17.803 16.450,17.160 15.572,16.164 C14.694,17.160 13.417,17.803 11.978,17.803 C10.537,17.803 9.262,17.160 8.382,16.162 C7.758,16.864 6.934,17.391 5.989,17.634 L5.989,40.372 C5.989,41.683 7.062,42.747 8.385,42.747 L9.583,42.747 L9.583,42.747 L9.583,30.869 C9.583,30.212 10.118,29.681 10.780,29.681 L17.967,29.681 C18.630,29.681 19.165,30.212 19.165,30.869 L19.165,42.747 L19.165,42.747 L34.737,42.747 C36.059,42.747 37.133,41.683 37.133,40.372 L37.133,4.001 ZM52.704,4.736 C52.704,3.425 51.631,2.361 50.309,2.361 L39.528,2.361 L39.528,40.372 C39.528,41.241 39.275,42.046 38.863,42.747 L50.309,42.747 C51.631,42.747 52.704,41.683 52.704,40.372 L52.704,4.736 ZM32.341,32.056 L32.341,32.056 L22.759,32.056 L22.759,32.056 C22.096,32.056 21.561,31.526 21.561,30.869 L21.561,22.554 C21.561,21.897 22.096,21.366 22.759,21.366 L32.341,21.366 C33.004,21.366 33.539,21.897 33.539,22.554 L33.539,30.869 C33.539,31.526 33.004,32.056 32.341,32.056 ZM31.143,23.742 L23.956,23.742 L23.956,29.681 L31.143,29.681 L31.143,23.742 Z" class="cls-1"/>
</svg>
