<svg xmlns="http://www.w3.org/2000/svg" xmlns:xlink="http://www.w3.org/1999/xlink" preserveAspectRatio="xMidYMid" width="55.094" height="48.59" viewBox="0 0 55.094 48.59">
  <defs>
    <style>
      .cls-1 {
        fill: #ff3a58;
        fill-rule: evenodd;
      }
    </style>
  </defs>
  <path d="M55.094,42.659 L55.094,42.659 C55.094,45.931 52.413,48.582 49.105,48.582 L49.105,48.582 L5.983,48.582 L5.983,48.582 C2.675,48.582 -0.006,45.931 -0.006,42.659 L-0.006,8.309 C-0.006,5.692 2.139,3.571 4.785,3.571 L4.785,3.571 L28.947,3.571 L38.648,0.096 C39.262,-0.126 39.943,0.188 40.167,0.793 L41.188,3.571 L45.511,3.571 C48.157,3.571 50.303,5.692 50.303,8.309 L50.303,10.678 L50.303,10.678 C52.949,10.678 55.094,12.799 55.094,15.416 L55.094,42.659 ZM4.785,5.940 L4.785,5.940 C3.463,5.940 2.390,7.001 2.390,8.309 C2.390,9.616 3.463,10.678 4.785,10.678 L8.912,10.678 L8.912,10.678 L9.138,10.678 C9.154,10.672 9.163,10.659 9.179,10.653 L22.333,5.940 L4.785,5.940 ZM39.616,6.154 L38.344,2.691 L38.342,2.691 L38.342,2.691 L35.886,3.571 L35.889,3.571 L29.284,5.940 L29.272,5.940 L16.050,10.678 L41.278,10.678 L39.616,6.154 ZM47.907,8.309 C47.907,7.001 46.834,5.940 45.511,5.940 L42.058,5.940 L43.800,10.678 L47.907,10.678 L47.907,10.678 L47.907,8.309 ZM50.303,13.047 L4.785,13.047 L4.785,13.047 C3.908,13.047 3.096,12.797 2.390,12.389 L2.390,42.659 C2.390,44.622 3.999,46.213 5.983,46.213 L49.105,46.213 C51.090,46.213 52.698,44.622 52.698,42.659 L52.698,34.368 L47.907,34.368 C45.261,34.368 43.116,32.246 43.116,29.630 C43.116,27.013 45.261,24.891 47.907,24.891 L52.698,24.891 L52.698,15.416 C52.698,14.108 51.625,13.047 50.303,13.047 ZM52.698,31.998 L52.698,27.261 L47.907,27.261 C46.585,27.261 45.511,28.322 45.511,29.630 C45.511,30.937 46.585,31.998 47.907,31.998 L52.698,31.998 ZM47.907,28.445 L50.303,28.445 L50.303,30.814 L47.907,30.814 L47.907,28.445 Z" class="cls-1"/>
</svg>
