<svg xmlns="http://www.w3.org/2000/svg" xmlns:xlink="http://www.w3.org/1999/xlink" preserveAspectRatio="xMidYMid" width="55.093" height="54.63" viewBox="0 0 55.093 54.63">
  <defs>
    <style>
      .cls-1 {
        fill: #ff3a58;
        fill-rule: evenodd;
      }
    </style>
  </defs>
  <path d="M55.087,28.482 L55.087,28.507 C55.087,28.887 54.895,29.211 54.614,29.428 L31.929,51.923 C31.473,52.376 30.734,52.376 30.275,51.923 C29.819,51.470 29.819,50.735 30.275,50.283 L52.691,28.054 L52.691,20.192 C52.691,19.537 53.229,19.004 53.889,19.004 C54.552,19.004 55.087,19.537 55.087,20.192 L55.087,28.474 C55.087,28.477 55.087,28.478 55.087,28.482 ZM22.520,54.128 C22.481,54.185 22.456,54.249 22.406,54.299 C22.170,54.531 21.858,54.640 21.549,54.633 C21.240,54.640 20.929,54.531 20.693,54.299 C20.643,54.249 20.619,54.185 20.579,54.128 L0.503,34.218 C0.446,34.181 0.382,34.156 0.331,34.106 C0.095,33.872 -0.012,33.564 -0.006,33.258 C-0.013,32.951 0.095,32.642 0.331,32.408 C0.382,32.358 0.446,32.335 0.503,32.296 L27.808,5.219 C28.027,4.942 28.353,4.751 28.736,4.751 L28.761,4.751 C28.763,4.751 28.766,4.751 28.768,4.751 L33.594,4.751 C33.753,2.966 34.488,1.401 35.594,0.376 L35.614,0.397 C35.847,0.151 36.168,-0.001 36.521,-0.001 C37.231,-0.001 37.805,0.607 37.805,1.357 C37.805,1.802 37.590,2.178 37.277,2.425 C36.704,2.950 36.295,3.778 36.159,4.751 L41.878,4.751 C41.880,4.751 41.883,4.751 41.888,4.751 L41.911,4.751 C42.295,4.751 42.623,4.940 42.840,5.219 L49.823,12.144 C50.103,12.362 50.296,12.686 50.296,13.066 L50.296,13.091 C50.296,13.093 50.296,13.095 50.296,13.098 L50.296,26.098 C50.296,26.100 50.296,26.103 50.296,26.106 L50.296,26.131 C50.296,26.511 50.104,26.836 49.823,27.052 L22.520,54.128 ZM47.900,13.518 L41.455,7.127 L36.409,7.127 C36.620,7.654 36.917,8.103 37.277,8.433 L37.277,8.433 C37.326,8.473 37.387,8.497 37.429,8.543 L37.451,8.521 C38.698,9.677 39.517,11.500 39.517,13.574 C39.517,13.624 39.505,13.668 39.503,13.717 C40.936,14.537 41.913,16.057 41.913,17.817 C41.913,20.441 39.767,22.568 37.122,22.568 C34.476,22.568 32.330,20.441 32.330,17.817 C32.330,15.267 34.361,13.202 36.906,13.087 C36.798,12.033 36.378,11.130 35.769,10.572 C35.720,10.533 35.659,10.509 35.615,10.462 L35.596,10.484 C34.705,9.658 34.047,8.482 33.735,7.127 L29.192,7.127 L2.841,33.258 L21.549,51.809 L47.900,25.679 L47.900,13.518 ZM35.768,16.578 C36.065,16.306 36.308,15.940 36.507,15.529 C35.483,15.800 34.725,16.717 34.725,17.816 C34.725,19.127 35.798,20.191 37.120,20.191 C38.444,20.191 39.516,19.127 39.516,17.816 C39.516,17.254 39.312,16.745 38.983,16.338 C38.246,18.173 37.429,18.605 37.429,18.605 C37.198,18.851 36.877,19.002 36.521,19.002 C35.812,19.002 35.240,18.394 35.240,17.645 C35.240,17.202 35.454,16.826 35.768,16.578 ZM13.507,31.221 C13.965,30.768 14.705,30.768 15.162,31.221 L23.605,39.593 C24.061,40.046 24.061,40.780 23.605,41.234 C23.148,41.686 22.407,41.686 21.951,41.234 L13.507,32.861 C13.051,32.408 13.051,31.675 13.507,31.221 ZM18.298,26.470 C18.756,26.017 19.496,26.017 19.953,26.470 L28.396,34.842 C28.851,35.295 28.851,36.029 28.396,36.483 C27.939,36.935 27.198,36.935 26.742,36.483 L18.298,28.110 C17.842,27.657 17.842,26.924 18.298,26.470 Z" class="cls-1"/>
</svg>
