<svg  xmlns="http://www.w3.org/2000/svg" xmlns:xlink="http://www.w3.org/1999/xlink" x="0px" y="0px"
	 width="51.416px" height="41.133px" viewBox="0 0 51.416 41.133" enable-background="new 0 0 51.416 41.133" xml:space="preserve">
<path fill="none" d="M47.988,29.992c0,0.455-0.402,0.857-0.857,0.857H4.285c-0.455,0-0.857-0.402-0.857-0.857V4.284
	c0-0.455,0.402-0.856,0.857-0.856h42.847c0.455,0,0.857,0.401,0.857,0.856V29.992z M51.416,4.284C51.416,1.928,49.488,0,47.131,0
	H4.285C1.928,0,0,1.928,0,4.284v25.708c0,2.357,1.928,4.285,4.285,4.285h19.709v3.428h-9.426c-0.482,0-0.857,0.375-0.857,0.856
	v1.714c0,0.482,0.375,0.857,0.857,0.857h22.28c0.482,0,0.857-0.375,0.857-0.857v-1.714c0-0.481-0.375-0.856-0.857-0.856h-9.426
	v-3.428h19.709c2.356,0,4.285-1.928,4.285-4.285V4.284z"/>
</svg> 