<svg  xmlns="http://www.w3.org/2000/svg" xmlns:xlink="http://www.w3.org/1999/xlink" x="0px" y="0px"
	 width="54.848px" height="44.561px" viewBox="0 0 54.848 44.561" enable-background="new 0 0 54.848 44.561" xml:space="preserve">
  <path fill="none" d="M5.68,17.139h8.649l8.034,17.808L5.68,17.139z M27.424,37.812l-9.346-20.673H36.77L27.424,37.812z
	 M14.41,13.711H5.144l7.712-10.283h7.016L14.41,13.711z M32.485,34.946l8.034-17.808h8.649L32.485,34.946z M18.292,13.711
	l5.463-10.283h7.337l5.463,10.283H18.292z M40.439,13.711L34.976,3.428h7.016l7.712,10.283H40.439z M44.215,0.696
	C43.894,0.24,43.385,0,42.849,0H12c-0.536,0-1.044,0.24-1.366,0.696L0.351,14.407c-0.509,0.643-0.455,1.58,0.107,2.195
	l25.708,27.422c0.321,0.349,0.777,0.536,1.259,0.536s0.937-0.188,1.258-0.536l25.708-27.422c0.563-0.615,0.616-1.553,0.107-2.195
	L44.215,0.696z"/>
</svg>
