<svg  xmlns="http://www.w3.org/2000/svg" xmlns:xlink="http://www.w3.org/1999/xlink" x="0px" y="0px"
	 width="30.85px" height="25.137px" viewBox="0 0 30.85 25.137" enable-background="new 0 0 30.85 25.137" xml:space="preserve">
  <path fill="none" d="M10.283,20.566c0,1.25-1.035,2.285-2.285,2.285s-2.285-1.035-2.285-2.285c0-1.25,1.035-2.285,2.285-2.285
	S10.283,19.317,10.283,20.566z M3.428,11.426V10.89c0-0.071,0.107-0.339,0.16-0.393l3.481-3.481
	c0.054-0.053,0.321-0.161,0.394-0.161h2.82v4.57H3.428z M26.279,20.566c0,1.25-1.035,2.285-2.285,2.285s-2.285-1.035-2.285-2.285
	c0-1.25,1.035-2.285,2.285-2.285S26.279,19.317,26.279,20.566z M30.85,1.143C30.85,0.518,30.332,0,29.707,0H11.426
	c-0.625,0-1.143,0.518-1.143,1.143V4.57H7.427c-0.643,0-1.5,0.357-1.946,0.804L1.946,8.909c-0.982,0.982-0.804,2.392-0.804,3.66
	v5.713C0.518,18.281,0,18.799,0,19.424c0,1.321,1.393,1.143,2.285,1.143h1.143c0,2.518,2.053,4.57,4.57,4.57s4.57-2.053,4.57-4.57
	h6.855c0,2.518,2.053,4.57,4.57,4.57s4.57-2.053,4.57-4.57c0.893,0,2.285,0.179,2.285-1.143V1.143z"/>
</svg>
