<svg xmlns="http://www.w3.org/2000/svg" xmlns:xlink="http://www.w3.org/1999/xlink" preserveAspectRatio="xMidYMid" width="116" height="115.97" viewBox="0 0 116 115.97">
  <defs>
    <style>
      .cls-1 {
        fill: #474747;
        fill-rule: evenodd;
      }
    </style>
  </defs>
  <path d="M116.000,60.467 L116.000,60.520 C116.000,61.326 115.597,62.015 115.004,62.476 L67.247,110.233 C66.286,111.193 64.730,111.193 63.764,110.233 C62.804,109.269 62.804,107.711 63.764,106.750 L110.957,59.559 L110.957,42.869 C110.957,41.477 112.089,40.347 113.479,40.347 C114.873,40.347 116.000,41.477 116.000,42.869 L116.000,60.452 C116.000,60.457 116.000,60.459 116.000,60.467 ZM47.437,114.913 C47.356,115.034 47.303,115.170 47.197,115.276 C46.701,115.770 46.045,115.999 45.394,115.984 C44.744,115.999 44.088,115.770 43.591,115.276 C43.485,115.170 43.435,115.034 43.352,114.913 L1.087,72.646 C0.966,72.565 0.832,72.512 0.724,72.407 C0.227,71.910 0.002,71.257 0.015,70.606 C-0.000,69.955 0.227,69.300 0.724,68.803 C0.832,68.697 0.966,68.647 1.087,68.564 L58.570,11.081 C59.031,10.491 59.717,10.086 60.524,10.086 L60.577,10.086 C60.582,10.086 60.587,10.086 60.592,10.086 L70.752,10.086 C71.087,6.298 72.633,2.975 74.963,0.799 L75.003,0.844 C75.495,0.322 76.171,-0.001 76.915,-0.001 C78.408,-0.001 79.618,1.290 79.618,2.881 C79.618,3.827 79.164,4.624 78.506,5.148 C77.298,6.263 76.438,8.020 76.151,10.086 L88.192,10.086 C88.197,10.086 88.202,10.086 88.212,10.086 L88.262,10.086 C89.069,10.086 89.760,10.489 90.216,11.081 L104.917,25.782 C105.508,26.244 105.914,26.932 105.914,27.739 L105.914,27.792 C105.914,27.797 105.914,27.802 105.914,27.807 L105.914,55.406 C105.914,55.411 105.914,55.416 105.914,55.424 L105.914,55.477 C105.914,56.283 105.510,56.972 104.917,57.431 L47.437,114.913 ZM100.870,28.700 L87.301,15.131 L76.678,15.131 C77.122,16.251 77.747,17.204 78.506,17.905 L78.506,17.905 C78.609,17.988 78.738,18.038 78.826,18.137 L78.872,18.092 C81.497,20.545 83.221,24.416 83.221,28.818 C83.221,28.924 83.196,29.017 83.191,29.121 C86.210,30.863 88.265,34.089 88.265,37.825 C88.265,43.396 83.748,47.912 78.178,47.912 C72.608,47.912 68.092,43.396 68.092,37.825 C68.092,32.412 72.366,28.029 77.724,27.785 C77.497,25.545 76.612,23.629 75.331,22.444 C75.228,22.361 75.099,22.310 75.006,22.212 L74.966,22.257 C73.089,20.505 71.705,18.008 71.049,15.131 L61.485,15.131 L6.009,70.606 L45.394,109.990 L100.870,54.516 L100.870,28.700 ZM75.329,35.195 C75.954,34.618 76.466,33.841 76.885,32.969 C74.729,33.544 73.132,35.490 73.132,37.823 C73.132,40.607 75.392,42.866 78.176,42.866 C80.962,42.866 83.219,40.607 83.219,37.823 C83.219,36.630 82.790,35.551 82.097,34.686 C80.546,38.582 78.826,39.500 78.826,39.500 C78.339,40.022 77.664,40.342 76.915,40.342 C75.422,40.342 74.217,39.051 74.217,37.460 C74.217,36.519 74.668,35.722 75.329,35.195 ZM28.464,66.282 C29.427,65.321 30.986,65.321 31.946,66.282 L49.721,84.056 C50.682,85.017 50.682,86.575 49.721,87.538 C48.761,88.499 47.200,88.499 46.239,87.538 L28.464,69.764 C27.503,68.803 27.503,67.245 28.464,66.282 ZM38.551,56.195 C39.514,55.235 41.072,55.235 42.033,56.195 L59.808,73.970 C60.766,74.931 60.766,76.489 59.808,77.452 C58.847,78.413 57.286,78.413 56.326,77.452 L38.551,59.678 C37.590,58.717 37.590,57.158 38.551,56.195 Z" class="cls-1"/>
</svg>
