<svg  xmlns="http://www.w3.org/2000/svg" xmlns:xlink="http://www.w3.org/1999/xlink" x="0px" y="0px"
	 width="51.416px" height="27.422px" viewBox="0 0 51.416 27.422" enable-background="new 0 0 51.416 27.422" xml:space="preserve">
<path fill="none" d="M22.28,15.425c0,0.481-0.375,0.856-0.857,0.856h-5.142v5.142c0,0.482-0.375,0.857-0.856,0.857h-3.428
	c-0.482,0-0.857-0.375-0.857-0.857v-5.142H5.998c-0.481,0-0.856-0.375-0.856-0.856v-3.428c0-0.482,0.375-0.857,0.856-0.857h5.142
	V5.998c0-0.481,0.375-0.856,0.857-0.856h3.428c0.481,0,0.856,0.375,0.856,0.856v5.142h5.142c0.482,0,0.857,0.375,0.857,0.857V15.425
	z M37.705,17.139c0,1.901-1.526,3.428-3.428,3.428s-3.428-1.526-3.428-3.428s1.526-3.428,3.428-3.428S37.705,15.237,37.705,17.139z
	 M44.561,10.283c0,1.901-1.526,3.428-3.428,3.428s-3.428-1.526-3.428-3.428s1.526-3.428,3.428-3.428S44.561,8.382,44.561,10.283z
	 M51.416,13.711C51.416,6.132,45.283,0,37.705,0H13.711C6.132,0,0,6.132,0,13.711c0,7.578,6.132,13.711,13.711,13.711
	c3.481,0,6.641-1.313,9.051-3.428h5.892c2.41,2.115,5.57,3.428,9.052,3.428C45.283,27.422,51.416,21.289,51.416,13.711z"/>
</svg> 