<svg xmlns="http://www.w3.org/2000/svg" xmlns:xlink="http://www.w3.org/1999/xlink" preserveAspectRatio="xMidYMid" width="48.718" height="67.5" viewBox="0 0 48.718 67.5">
  <defs>
    <style>
      .cls-1 {
        fill: #fff;
        fill-rule: evenodd;
      }
    </style>
  </defs>
  <path d="M36.016,32.999 C33.010,33.747 30.005,33.567 27.235,32.742 L26.709,33.613 L24.992,36.467 L22.086,41.303 C21.513,42.254 21.342,43.393 21.610,44.472 L22.795,49.234 L18.732,50.245 C16.489,50.803 15.121,53.074 15.680,55.320 L16.691,59.383 L11.933,60.567 C10.856,60.835 9.928,61.521 9.356,62.472 L7.192,66.070 L1.449,67.490 L0.002,61.701 L17.814,32.147 C17.814,32.147 17.815,32.149 17.818,32.150 L20.059,28.423 C18.032,26.362 16.465,23.794 15.717,20.787 C13.484,11.810 18.953,2.721 27.926,0.489 C36.899,-1.743 45.989,3.723 48.222,12.700 C50.456,21.676 44.992,30.767 36.016,32.999 ZM43.554,11.279 C43.452,10.875 43.224,10.506 42.898,10.227 C39.831,7.620 36.369,5.541 32.611,4.040 C31.999,3.793 31.305,3.866 30.755,4.228 C28.180,5.923 26.728,8.334 26.443,11.402 C26.420,11.632 26.438,11.860 26.492,12.078 C26.593,12.482 26.819,12.851 27.147,13.130 C30.223,15.739 33.681,17.821 37.430,19.316 C38.043,19.561 38.733,19.490 39.284,19.131 C41.864,17.441 43.315,15.026 43.604,11.955 C43.626,11.725 43.608,11.496 43.554,11.279 ZM38.204,17.374 C34.664,15.961 31.399,13.997 28.526,11.598 C28.755,9.161 29.860,7.324 31.836,5.982 C35.379,7.399 38.639,9.358 41.515,11.797 C41.274,14.219 40.171,16.047 38.204,17.374 Z" class="cls-1"/>
</svg>
