<svg   xmlns="http://www.w3.org/2000/svg" xmlns:xlink="http://www.w3.org/1999/xlink" x="0px" y="0px"
	 viewBox="-92.5 375.4 142.7 43.9" style="enable-background:new -92.5 375.4 142.7 43.9;" xml:space="preserve">
  <g>
    <path class="st0" d="M-47,389.2l0.7,12.1c0.1,1.2,1.1,1.3,1.5,1.3l3.8-9.3c0.4-0.9,0.7-2.2,0.9-4.2h5.3c0.4,2.2-0.3,4.6-1,6.1
		l-5.2,12c-3.9,8.8-9.2,9.7-11.5,10v-3.9c3.1-1.6,4.7-3.6,5.9-6.1c-3.2,0-4.8-1.8-5.1-4.9l-1.1-13.1C-52.7,389.2-47,389.2-47,389.2z
		"/>
    <path class="st0" d="M-24.6,389c6.2,0,8,3.2,6.9,10.2c-1.1,6.7-3.3,8.3-9.7,8.3c-6.2,0-8-3.1-7-9.6C-33.2,390.5-30.8,389-24.6,389
		 M-26.8,403.2c2.3,0,2.8-0.3,3.5-4.6c0.7-4.4,0.5-5.2-1.9-5.2c-2.5,0-2.9,0.8-3.6,5.2C-29.5,402.7-29,403.2-26.8,403.2"/>
    <path class="st0" d="M-16.7,403.1c0.1-0.5,0.4-0.8,1-0.8h3.4c0.5,0,0.7,0.4,0.6,0.8l-0.6,3.5c-0.1,0.5-0.4,0.8-0.9,0.8h-3.4
		c-0.5,0-0.8-0.3-0.7-0.8L-16.7,403.1z M-13.6,382.5h5.4l-3.4,18.1H-16L-13.6,382.5z"/>
    <path class="st0" d="M9.2,389.3H3.3c-1,3.1-3.5,5.3-6,6.3l2.1-13h-5.6l-3.9,24.8h5.6l1.3-8l1.3,0l3.9,8h6.1l-5-9.8
		C5.1,396.4,7.9,394,9.2,389.3"/>
    <path class="st0" d="M17.5,388.9c2.7-0.1,6.6,0.4,8.3,2.1l-2.4,16.2h-4.3l-0.9-1.8c-0.9,1.3-3.1,2-5.1,2c-3.4,0-6-3.3-4.6-10.5
		C10.1,389.5,14.1,389,17.5,388.9 M15.5,402.9c1.7,0,2.6-0.6,3.3-1.7l1.1-7.7c-0.7-0.3-2-0.4-2.8-0.2c-1.3,0.3-2.5,0.8-3.1,4.6
		C13.6,400.8,13.5,402.9,15.5,402.9"/>
    <path class="st0" d="M28.1,389.3h4.8l0.4,2.3c1.2-1.2,3-2.5,5-2.5c0.7,0,1.3,0,1.8,0.2l-0.8,5.4c-0.5,0-1.6-0.1-2.6-0.1
		c-1.7,0-3.2,0.2-4.1,2l-1.7,10.7h-5.6L28.1,389.3z"/>
    <path class="st0" d="M41.8,384.2h5.7l-0.8,5h3.6l-0.6,4h-3.6l-1,6.6c-0.4,2.7,0,3.1,0.9,3.4c0,0,1.6,0.7,1.8,0.7l-0.5,3.4h-3.6
		c-2.9,0-5-1.8-4.3-6.5L41.8,384.2z"/>
    <path class="st1" d="M-53.5,375.6c-2.2-0.7-5.4,1-6.7,3.5c-1,1.9-1.8,3.6-2.5,4.9c-1.3,2.6-2.1,4.2-3.1,5c-1.4,1.1-3.5,0.4-6.4-0.5
		l-15.9-4.9c-1.5-0.4-3,0.4-3.5,1.8c-0.4,1.5,0.4,3,1.8,3.5l6.9,2.1l7.3,2.3l1.6,0.5l0,0c1.7,0.7,2.6,2.6,2,4.4
		c-0.4,1.3-1.5,2.3-2.8,2.5c0.9,0.9,1.3,2.3,0.9,3.6c-0.6,1.8-2.4,2.9-4.2,2.5l0,0l-0.4-0.1c0,0,0,0,0,0l-1-0.3l-7.5-2.3l-3.1-0.9
		c-1-0.3-2.1,0.3-2.5,1.3c-0.3,1,0.3,2.1,1.3,2.5l14.6,4.5c5.9,1.8,10-1.8,11.5-6.1c0.9-2.7,7.8-21.3,10.1-24.9
		c0.7-1.1,1.3-1.5,1.8-1.9c0.5-0.3,0.7-0.5,0.9-1.1C-52,377.1-52.1,376-53.5,375.6"/>
    <path class="st1" d="M-86.1,413.5c-0.5,1.6-2.1,2.4-3.7,2c-1.6-0.5-2.4-2.1-2-3.7c0.5-1.6,2.1-2.4,3.7-1.9
		C-86.5,410.3-85.6,411.9-86.1,413.5"/>
    <path class="st1" d="M-73.9,417.2c-0.3,1.1-1.3,1.9-2.4,2.1c-0.4,0.1-0.8,0-1.3-0.1c-1.6-0.5-2.4-2.1-2-3.7c0.5-1.6,2.1-2.4,3.7-2
		C-74.3,414-73.4,415.7-73.9,417.2"/>
    <path class="st1" d="M-77.4,405.6c-0.2,0-0.5,0-0.7-0.1l-1.1-0.4l-0.4-0.1l-7.5-2.3c-0.6-0.2-1.1-0.6-1.4-1.2
		c-0.3-0.6-0.4-1.2-0.2-1.9c0.3-1,1.3-1.7,2.3-1.7c0.2,0,0.5,0,0.7,0.1l8.1,2.5l0,0l0.9,0.3l0,0l0,0c1.3,0.4,2,1.8,1.6,3
		C-75.4,404.9-76.4,405.6-77.4,405.6"/>
    <path class="st1" d="M-75.7,399.5c-0.2,0-0.5,0-0.7-0.1l-1.1-0.3l-0.4-0.1l-7.4-2.3c-1.3-0.4-2-1.7-1.6-3c0.3-1,1.2-1.7,2.3-1.7
		c0.2,0,0.5,0,0.7,0.1l8,2.4l0,0l0.9,0.3c1.3,0.4,2,1.7,1.6,3C-73.7,398.8-74.6,399.5-75.7,399.5"/>
    <g class="st2">
      <path class="st3" d="M-31.6,414.4c0-0.6,0-1.4,0-2.2h0c-0.2,0.7-0.4,1.5-0.6,2.1l-0.7,2.1h-1l-0.6-2.1c-0.2-0.6-0.4-1.4-0.5-2.1h0
			c0,0.7-0.1,1.6-0.1,2.2l-0.1,2.1h-1.1l0.3-5.4h1.6l0.5,1.8c0.2,0.6,0.3,1.3,0.5,1.9h0c0.1-0.6,0.3-1.3,0.5-1.9l0.6-1.8h1.6
			l0.3,5.4h-1.2L-31.6,414.4z"/>
      <path class="st3" d="M-28.2,411.1v3.1c0,0.9,0.4,1.4,1,1.4c0.6,0,1-0.4,1-1.4v-3.1h1.2v3c0,1.7-0.8,2.5-2.3,2.5
			c-1.4,0-2.2-0.8-2.2-2.5v-3H-28.2z"/>
    </g>
    <g class="st2">
      <path class="st3" d="M-23.9,411.1h1.2v4.4h2.1v1h-3.4L-23.9,411.1L-23.9,411.1z"/>
    </g>
    <g class="st2">
      <path class="st3" d="M-19.6,412.1h-1.5v-1h4.2v1h-1.5v4.4h-1.2V412.1z"/>
      <path class="st3" d="M-15,411.1v5.4h-1.2v-5.4H-15z"/>
    </g>
    <g class="st2">
      <path class="st3" d="M-11.4,416.5l-1.7-5.4h1.3l0.7,2.3c0.2,0.6,0.4,1.3,0.5,1.9h0c0.1-0.6,0.3-1.3,0.5-1.9l0.7-2.3h1.3l-1.8,5.4
			H-11.4z"/>
      <path class="st3" d="M-4.3,414.2h-2v1.3h2.2v1h-3.4v-5.4h3.3v1h-2.1v1.1h2L-4.3,414.2L-4.3,414.2z"/>
      <path class="st3" d="M-3.3,416.5v-5.4h1.4l1.1,2c0.3,0.6,0.6,1.2,0.9,1.9h0c-0.1-0.7-0.1-1.4-0.1-2.3v-1.6h1.1v5.4h-1.3l-1.2-2.1
			c-0.3-0.6-0.7-1.3-0.9-1.9h0c0,0.7,0.1,1.5,0.1,2.4v1.6L-3.3,416.5L-3.3,416.5z"/>
      <path class="st3" d="M2.3,411.1c0.4-0.1,1-0.1,1.6-0.1c1,0,1.7,0.2,2.2,0.6c0.6,0.4,0.9,1.1,0.9,2c0,1-0.4,1.7-0.9,2.2
			c-0.6,0.5-1.4,0.7-2.5,0.7c-0.6,0-1.1,0-1.4-0.1L2.3,411.1L2.3,411.1z M3.5,415.5c0.1,0,0.3,0,0.4,0c1.1,0,1.8-0.6,1.8-1.9
			c0-1.1-0.7-1.7-1.7-1.7c-0.3,0-0.4,0-0.6,0V415.5z"/>
      <path class="st3" d="M12.8,413.7c0,1.8-1.1,2.8-2.7,2.8c-1.6,0-2.5-1.2-2.5-2.8c0-1.6,1-2.8,2.6-2.8
			C11.9,411,12.8,412.2,12.8,413.7z M8.9,413.8c0,1.1,0.5,1.8,1.3,1.8c0.8,0,1.3-0.8,1.3-1.8c0-1-0.5-1.8-1.3-1.8
			C9.4,411.9,8.9,412.7,8.9,413.8z"/>
      <path class="st3" d="M13.6,411.1c0.4-0.1,1-0.1,1.6-0.1c0.8,0,1.4,0.1,1.7,0.4c0.3,0.3,0.5,0.6,0.5,1.1c0,0.7-0.5,1.2-1,1.3v0
			c0.4,0.2,0.6,0.5,0.7,1c0.2,0.6,0.3,1.3,0.4,1.5h-1.3c-0.1-0.2-0.2-0.6-0.4-1.3c-0.2-0.7-0.4-0.9-0.9-0.9h-0.4v2.1h-1.2
			L13.6,411.1L13.6,411.1z M14.8,413.4h0.5c0.6,0,1-0.3,1-0.8c0-0.5-0.3-0.7-0.9-0.7c-0.3,0-0.5,0-0.6,0V413.4z"/>
      <path class="st3" d="M20,415.2c0.3,0.2,0.8,0.3,1.4,0.3c0.6,0,0.9-0.2,0.9-0.6c0-0.3-0.3-0.5-0.9-0.8c-0.9-0.3-1.5-0.8-1.5-1.6
			c0-0.9,0.8-1.6,2-1.6c0.6,0,1.1,0.1,1.4,0.3l-0.3,1c-0.2-0.1-0.6-0.3-1.1-0.3c-0.5,0-0.8,0.2-0.8,0.5c0,0.3,0.3,0.5,1,0.8
			c1,0.4,1.4,0.8,1.4,1.6c0,0.9-0.7,1.7-2.2,1.7c-0.6,0-1.2-0.2-1.5-0.3L20,415.2z"/>
    </g>
    <g class="st2">
      <path class="st3" d="M25.5,416.5v-2.2l-1.7-3.2h1.4l0.5,1.3c0.2,0.4,0.3,0.7,0.4,1h0c0.1-0.3,0.2-0.6,0.4-1l0.5-1.3h1.4l-1.8,3.2
			v2.3H25.5z"/>
    </g>
    <g class="st2">
      <path class="st3" d="M28.9,415.2c0.3,0.2,0.8,0.3,1.4,0.3c0.6,0,0.9-0.2,0.9-0.6c0-0.3-0.3-0.5-0.9-0.8c-0.9-0.3-1.5-0.8-1.5-1.6
			c0-0.9,0.8-1.6,2-1.6c0.6,0,1.1,0.1,1.4,0.3l-0.3,1c-0.2-0.1-0.6-0.3-1.1-0.3c-0.5,0-0.8,0.2-0.8,0.5c0,0.3,0.3,0.5,1,0.8
			c1,0.4,1.4,0.8,1.4,1.6c0,0.9-0.7,1.7-2.2,1.7c-0.6,0-1.2-0.2-1.5-0.3L28.9,415.2z"/>
      <path class="st3" d="M34.3,412.1h-1.5v-1H37v1h-1.5v4.4h-1.2L34.3,412.1L34.3,412.1z"/>
      <path class="st3" d="M40.8,414.2h-2v1.3h2.2v1h-3.4v-5.4H41v1h-2.1v1.1h2L40.8,414.2L40.8,414.2z"/>
      <path class="st3" d="M46.5,414.4c0-0.6,0-1.4,0-2.2h0c-0.2,0.7-0.4,1.5-0.6,2.1l-0.7,2.1h-1l-0.6-2.1c-0.2-0.6-0.4-1.4-0.5-2.1h0
			c0,0.7-0.1,1.6-0.1,2.2l-0.1,2.1h-1.1l0.3-5.4h1.6l0.5,1.8c0.2,0.6,0.3,1.3,0.5,1.9h0c0.1-0.6,0.3-1.3,0.5-1.9l0.6-1.8h1.6
			l0.3,5.4h-1.2L46.5,414.4z"/>
    </g>
  </g>
</svg>
