<svg  xmlns="http://www.w3.org/2000/svg" xmlns:xlink="http://www.w3.org/1999/xlink" x="0px" y="0px"
	 width="512px" height="121.904px" viewBox="0 195.048 512 121.904" enable-background="new 0 195.048 512 121.904"
	 xml:space="preserve">
  <g id="XMLID_27_">
    <path id="XMLID_28_" d="M60.952,195.048C27.343,195.048,0,222.391,0,256s27.343,60.952,60.952,60.952s60.952-27.343,60.952-60.952
		S94.562,195.048,60.952,195.048z"/>
    <path id="XMLID_30_" d="M256,195.048c-33.609,0-60.952,27.343-60.952,60.952s27.343,60.952,60.952,60.952
		s60.952-27.343,60.952-60.952S289.61,195.048,256,195.048z"/>
    <path id="XMLID_71_" d="M451.047,195.048c-33.609,0-60.952,27.343-60.952,60.952s27.343,60.952,60.952,60.952S512,289.609,512,256
		S484.656,195.048,451.047,195.048z"/>
  </g>
</svg>
