<svg xmlns="http://www.w3.org/2000/svg" xmlns:xlink="http://www.w3.org/1999/xlink" preserveAspectRatio="xMidYMid" width="239.88" height="336.91" viewBox="0 0 239.88 336.91">
  <defs>
    <style>
      .cls-1 {
        fill: #000;
        opacity: 0.1;
        fill-rule: evenodd;
      }
    </style>
  </defs>
  <path d="M239.573,214.688 L229.276,241.930 C228.544,243.870 226.695,245.066 224.737,245.066 C224.168,245.066 223.591,244.965 223.029,244.752 L182.210,229.293 C179.709,228.345 178.446,225.541 179.393,223.037 L189.689,195.797 C190.421,193.859 192.271,192.658 194.232,192.658 C194.799,192.658 195.377,192.759 195.939,192.972 L236.757,208.431 C239.254,209.377 240.518,212.190 239.573,214.688 ZM208.684,200.400 C206.707,199.651 204.679,199.296 202.684,199.296 C195.833,199.297 189.380,203.482 186.812,210.277 C183.498,219.045 187.909,228.852 196.675,232.171 C198.654,232.920 200.684,233.276 202.680,233.276 C209.533,233.276 215.986,229.090 218.553,222.298 C221.869,213.525 217.454,203.721 208.684,200.400 ZM224.771,229.847 C225.051,229.953 225.339,230.003 225.623,230.003 C226.605,230.003 227.533,229.401 227.899,228.431 C228.371,227.183 227.739,225.777 226.488,225.303 C226.207,225.197 225.918,225.147 225.634,225.147 C224.655,225.147 223.730,225.746 223.365,226.714 C222.893,227.963 223.522,229.373 224.771,229.847 ZM231.636,211.683 C230.931,211.416 230.206,211.289 229.494,211.289 C227.047,211.289 224.741,212.782 223.822,215.211 C222.639,218.343 224.219,221.846 227.347,223.030 C228.053,223.298 228.779,223.424 229.492,223.424 C231.939,223.424 234.243,221.930 235.159,219.506 C236.345,216.368 234.768,212.869 231.636,211.683 ZM229.486,219.788 C229.202,219.788 228.912,219.738 228.631,219.631 C227.383,219.159 226.753,217.751 227.226,216.500 C227.591,215.531 228.516,214.933 229.495,214.933 C229.779,214.933 230.068,214.984 230.349,215.090 C231.600,215.563 232.232,216.968 231.760,218.217 C231.393,219.187 230.467,219.788 229.486,219.788 ZM190.699,210.449 C191.060,209.702 191.494,208.996 191.981,208.341 L215.960,217.422 C215.884,218.234 215.748,219.053 215.525,219.852 L190.699,210.449 ZM196.064,204.699 L215.305,211.986 C215.612,212.898 215.816,213.849 215.923,214.818 L193.723,206.410 C194.449,205.757 195.225,205.176 196.064,204.699 ZM202.708,202.941 C204.268,202.941 205.852,203.216 207.398,203.802 C210.063,204.811 212.212,206.589 213.699,208.783 L199.384,203.361 C200.462,203.085 201.579,202.941 202.708,202.941 ZM213.387,224.230 L189.407,215.148 C189.475,214.335 189.613,213.529 189.841,212.719 L214.667,222.121 C214.302,222.880 213.867,223.573 213.387,224.230 ZM209.299,227.875 L190.058,220.589 C189.747,219.672 189.547,218.725 189.436,217.754 L211.636,226.160 C210.915,226.818 210.134,227.392 209.299,227.875 ZM202.646,229.630 C201.088,229.630 199.503,229.356 197.960,228.771 C195.294,227.760 193.154,225.980 191.665,223.785 L205.980,229.208 C204.899,229.485 203.779,229.630 202.646,229.630 ZM214.803,189.622 C214.335,189.136 214.346,188.370 214.829,187.904 C215.066,187.674 215.371,187.560 215.676,187.560 C215.992,187.560 216.307,187.682 216.546,187.925 L232.195,204.114 L226.871,202.098 L214.803,189.622 ZM226.638,146.979 L175.749,170.200 C175.450,170.337 175.136,170.401 174.827,170.401 C173.981,170.401 173.172,169.917 172.797,169.096 C172.288,167.975 172.782,166.653 173.900,166.142 L224.790,142.920 C225.090,142.783 225.404,142.719 225.713,142.719 C226.559,142.719 227.367,143.204 227.740,144.025 C228.252,145.145 227.758,146.468 226.638,146.979 ZM176.618,162.156 L218.944,142.843 L225.707,142.252 L172.812,166.432 L176.618,162.156 ZM162.802,134.101 L205.257,114.728 L217.971,142.645 L175.516,162.018 L162.802,134.101 ZM215.888,140.861 L204.743,116.389 L164.391,134.801 L175.536,159.274 L215.888,140.861 ZM203.141,44.825 L158.592,64.515 C158.112,64.728 157.610,64.828 157.117,64.828 C155.713,64.828 154.377,64.013 153.771,62.646 L141.971,35.888 C141.159,34.040 141.990,31.887 143.840,31.068 L146.064,30.084 L146.558,31.198 L157.697,26.273 L157.207,25.159 L188.393,11.378 C188.873,11.166 189.373,11.066 189.865,11.066 C191.268,11.066 192.605,11.879 193.210,13.245 L205.012,40.004 C205.827,41.851 204.990,44.010 203.141,44.825 ZM157.928,32.833 L156.943,30.602 C156.743,30.149 156.300,29.877 155.831,29.877 C155.667,29.877 155.499,29.910 155.337,29.982 L146.432,33.916 C145.812,34.190 145.535,34.911 145.804,35.527 L146.790,37.756 C146.991,38.213 147.436,38.484 147.904,38.484 C148.069,38.484 148.237,38.450 148.398,38.379 L157.304,34.444 C157.925,34.169 158.199,33.450 157.928,32.833 ZM191.472,15.344 C191.068,14.434 190.180,13.893 189.246,13.893 C188.917,13.893 188.583,13.960 188.262,14.101 C187.034,14.645 186.470,16.084 187.013,17.315 C187.415,18.226 188.313,18.768 189.249,18.768 C189.577,18.768 189.910,18.701 190.228,18.561 C191.460,18.015 192.012,16.576 191.472,15.344 ZM192.424,29.579 C190.011,24.111 184.664,20.857 179.052,20.857 C177.081,20.857 175.076,21.259 173.156,22.107 C165.774,25.369 162.434,34.001 165.692,41.394 C168.105,46.862 173.454,50.116 179.065,50.116 C181.036,50.116 183.040,49.714 184.959,48.866 C192.344,45.603 195.680,36.973 192.424,29.579 ZM183.977,46.638 C182.377,47.344 180.708,47.679 179.066,47.679 C174.389,47.679 169.928,44.968 167.919,40.411 C165.200,34.252 167.987,27.057 174.142,24.337 C175.743,23.630 177.413,23.295 179.056,23.295 C183.732,23.295 188.189,26.007 190.198,30.566 C192.913,36.723 190.137,43.918 183.977,46.638 ZM187.976,31.547 C186.364,27.902 182.795,25.734 179.057,25.734 C177.743,25.734 176.408,26.002 175.130,26.567 C170.202,28.745 167.982,34.493 170.153,39.423 C171.762,43.068 175.326,45.238 179.066,45.238 C180.379,45.238 181.713,44.971 182.992,44.406 C187.910,42.232 190.149,36.473 187.976,31.547 ZM146.689,28.477 C146.413,27.860 146.698,27.138 147.306,26.870 L153.992,23.914 C154.153,23.843 154.321,23.809 154.487,23.809 C154.956,23.809 155.401,24.081 155.600,24.538 L156.092,25.654 L147.181,29.592 L146.689,28.477 ZM162.096,177.567 C163.706,179.575 164.514,181.952 164.593,184.334 L156.033,173.666 C158.345,174.267 160.493,175.571 162.096,177.567 ZM162.829,185.785 C163.616,186.765 163.460,188.206 162.475,189.001 L159.806,191.145 C159.384,191.484 158.877,191.648 158.375,191.648 C157.707,191.648 157.045,191.358 156.597,190.801 L148.014,180.104 C147.216,179.112 147.376,177.673 148.359,176.883 L150.137,175.450 L149.423,174.563 C145.814,170.060 140.512,167.721 135.164,167.721 C131.148,167.721 127.104,169.041 123.731,171.754 C115.861,178.084 114.606,189.598 120.929,197.476 L121.643,198.364 L123.425,196.933 C123.846,196.594 124.351,196.429 124.854,196.429 C125.523,196.429 126.188,196.722 126.641,197.288 L135.225,207.984 C136.009,208.964 135.855,210.405 134.874,211.198 L132.199,213.343 C131.777,213.684 131.271,213.849 130.768,213.849 C130.100,213.849 129.438,213.557 128.991,212.998 L118.258,199.626 C110.753,190.272 112.243,176.601 121.589,169.085 C125.597,165.862 130.397,164.296 135.167,164.296 C141.517,164.296 147.810,167.073 152.096,172.414 L162.829,185.785 ZM103.427,158.471 C102.120,160.619 99.814,161.808 97.460,161.808 C96.225,161.808 94.977,161.481 93.853,160.795 L77.202,150.636 C73.927,148.638 72.884,144.328 74.878,141.053 L94.696,108.504 C96.002,106.358 98.305,105.169 100.659,105.169 C101.893,105.169 103.142,105.496 104.268,106.184 L120.920,116.343 C124.188,118.334 125.237,122.649 123.244,125.924 L103.427,158.471 ZM86.559,154.031 C87.067,154.342 87.629,154.490 88.184,154.490 C89.240,154.490 90.271,153.954 90.862,152.980 C91.764,151.509 91.299,149.572 89.822,148.670 C89.313,148.359 88.749,148.211 88.193,148.211 C87.133,148.211 86.098,148.747 85.508,149.714 C84.604,151.196 85.079,153.128 86.559,154.031 ZM117.244,119.015 L103.580,110.680 C102.707,110.147 101.739,109.893 100.781,109.894 C98.952,109.894 97.161,110.818 96.146,112.487 L82.158,135.463 C80.609,138.006 81.422,141.354 83.961,142.901 L97.626,151.240 C98.498,151.771 99.464,152.023 100.421,152.023 C102.249,152.023 104.040,151.100 105.057,149.433 L119.045,126.458 C120.593,123.915 119.785,120.566 117.244,119.015 ZM113.663,92.709 L105.694,94.857 L105.694,73.387 C99.566,75.841 89.949,96.697 89.949,96.697 C83.224,98.311 77.651,98.906 73.086,98.906 C60.306,98.906 55.442,94.242 55.442,94.242 C50.542,91.789 62.185,90.562 62.185,90.562 C70.762,88.722 89.949,60.504 89.949,60.504 C99.286,49.235 105.701,45.328 110.110,45.328 C120.103,45.328 119.789,65.413 119.789,65.413 C114.275,74.000 113.663,92.709 113.663,92.709 ZM108.436,46.919 C106.493,46.919 102.820,48.797 95.889,55.598 C95.889,55.598 78.277,81.818 73.827,83.817 C73.827,83.817 68.018,88.603 73.112,88.603 C74.840,88.603 77.823,88.052 82.713,86.576 C82.713,86.576 105.082,58.818 110.597,49.770 C110.597,49.770 110.831,46.919 108.436,46.919 ZM46.402,52.476 L40.265,69.313 L29.799,67.184 L30.392,49.220 C24.982,45.037 22.102,38.007 23.554,30.850 C25.009,23.676 30.420,18.319 37.052,16.592 L43.100,-0.001 L53.564,2.128 L52.982,19.829 C58.414,24.009 61.311,31.054 59.855,38.230 C58.403,45.386 53.013,50.734 46.402,52.476 ZM44.239,20.225 C43.286,20.031 42.337,19.938 41.402,19.938 C34.794,19.939 28.877,24.584 27.511,31.316 C25.952,39.006 30.911,46.501 38.591,48.061 C39.544,48.255 40.494,48.348 41.430,48.348 C48.037,48.348 53.955,43.702 55.319,36.971 C56.878,29.283 51.919,21.787 44.239,20.225 ZM53.509,38.208 C53.457,38.208 53.405,38.203 53.352,38.193 C52.926,38.105 52.650,37.689 52.737,37.262 C52.813,36.888 53.144,36.629 53.512,36.629 C53.562,36.629 53.614,36.634 53.666,36.644 C54.092,36.731 54.369,37.150 54.282,37.576 C54.205,37.950 53.876,38.208 53.509,38.208 ZM43.919,22.550 C43.867,22.550 43.815,22.545 43.762,22.534 C43.334,22.447 43.058,22.031 43.147,21.604 C43.223,21.232 43.551,20.973 43.916,20.973 C43.969,20.973 44.023,20.978 44.077,20.990 C44.502,21.074 44.777,21.494 44.690,21.918 C44.614,22.292 44.286,22.550 43.919,22.550 ZM43.672,35.059 C43.468,36.059 42.677,36.780 41.734,36.946 L39.984,44.124 L38.461,43.815 L39.935,36.546 C39.180,36.014 38.767,35.068 38.961,34.104 C39.027,33.781 39.155,33.490 39.329,33.235 L34.987,26.088 L36.282,25.229 L40.908,32.218 C41.048,32.194 41.191,32.180 41.336,32.180 C41.488,32.180 41.642,32.194 41.797,32.226 C43.096,32.491 43.934,33.758 43.672,35.059 ZM38.875,45.828 C38.926,45.828 38.979,45.833 39.031,45.843 C39.457,45.930 39.734,46.348 39.648,46.775 C39.572,47.148 39.244,47.406 38.877,47.406 C38.825,47.406 38.772,47.401 38.719,47.390 C38.293,47.303 38.016,46.887 38.101,46.460 C38.177,46.086 38.509,45.828 38.875,45.828 ZM29.165,33.259 C29.114,33.259 29.061,33.254 29.009,33.244 C28.582,33.157 28.305,32.738 28.393,32.312 C28.471,31.938 28.799,31.681 29.165,31.681 C29.217,31.681 29.269,31.686 29.322,31.697 C29.748,31.783 30.023,32.199 29.939,32.626 C29.862,32.999 29.532,33.259 29.165,33.259 ZM60.434,201.312 C90.418,201.312 67.280,226.001 67.280,226.001 C57.429,228.642 44.402,242.072 44.402,242.072 L37.063,238.294 L51.492,222.410 C50.785,222.146 49.883,222.029 48.839,222.029 C40.754,222.029 24.177,229.053 24.177,229.053 C1.149,216.385 0.296,203.999 0.296,203.999 C-0.237,202.621 0.059,202.117 0.776,202.117 C2.720,202.117 7.758,205.817 7.758,205.817 C9.405,206.775 12.257,207.151 15.715,207.151 C28.179,207.151 48.501,202.275 48.501,202.275 C53.193,201.611 57.132,201.312 60.434,201.312 ZM20.905,208.667 C20.905,208.667 20.668,208.654 20.300,208.654 C17.888,208.654 9.840,209.155 25.625,216.693 C25.625,216.693 60.831,211.218 70.992,208.237 C70.992,208.237 77.055,202.573 59.772,202.574 C58.676,202.574 57.484,202.597 56.193,202.645 C56.193,202.645 30.890,208.868 22.787,208.868 C21.971,208.868 21.329,208.805 20.905,208.667 ZM77.327,248.206 C77.433,248.204 77.538,248.203 77.644,248.203 C84.823,248.203 91.075,252.307 94.144,258.328 L111.634,260.665 L111.812,271.352 L94.419,274.597 C91.511,280.807 85.262,285.157 77.948,285.279 C77.842,285.281 77.737,285.282 77.631,285.282 C70.470,285.282 64.231,281.197 61.152,275.199 L43.405,272.826 L43.227,262.137 L60.879,258.847 C63.795,252.657 70.032,248.328 77.327,248.206 ZM77.955,280.577 C78.036,280.577 78.118,280.576 78.200,280.575 C86.035,280.442 92.279,273.979 92.148,266.136 C92.017,258.374 85.691,252.171 77.966,252.172 C77.886,252.172 77.805,252.173 77.724,252.174 C69.888,252.307 63.645,258.768 63.777,266.612 C63.906,274.373 70.232,280.577 77.955,280.577 ZM65.259,267.368 C65.255,267.368 65.251,267.368 65.247,267.368 C64.817,267.368 64.465,267.024 64.458,266.593 C64.451,266.157 64.798,265.797 65.233,265.789 C65.237,265.788 65.242,265.788 65.246,265.788 C65.675,265.788 66.027,266.135 66.035,266.564 C66.042,266.999 65.694,267.360 65.259,267.368 ZM77.472,263.968 C77.485,263.967 77.498,263.967 77.511,263.967 C77.826,263.967 78.124,264.029 78.399,264.139 L84.435,258.355 L85.553,259.437 L79.731,265.463 C79.842,265.732 79.909,266.024 79.915,266.334 C79.936,267.662 78.880,268.753 77.555,268.777 C77.542,268.777 77.529,268.777 77.516,268.777 C76.514,268.777 75.657,268.164 75.297,267.290 L67.918,267.125 L67.890,265.570 L75.299,265.445 C75.656,264.592 76.490,263.985 77.472,263.968 ZM77.359,278.113 C77.363,278.113 77.367,278.113 77.372,278.113 C77.801,278.113 78.153,278.458 78.162,278.888 C78.169,279.323 77.820,279.684 77.385,279.691 C77.381,279.691 77.378,279.691 77.374,279.691 C76.944,279.691 76.592,279.347 76.584,278.915 C76.577,278.480 76.924,278.120 77.359,278.113 ZM76.970,254.829 C76.967,254.829 76.963,254.829 76.959,254.829 C76.529,254.829 76.174,254.484 76.167,254.053 C76.160,253.617 76.509,253.256 76.944,253.250 C76.947,253.250 76.950,253.250 76.953,253.250 C77.384,253.250 77.737,253.595 77.744,254.026 C77.752,254.461 77.405,254.820 76.970,254.829 ZM90.567,265.365 C90.571,265.365 90.575,265.365 90.579,265.365 C91.009,265.365 91.363,265.710 91.368,266.142 C91.377,266.576 91.026,266.935 90.594,266.941 C90.589,266.941 90.585,266.941 90.581,266.941 C90.152,266.941 89.800,266.598 89.793,266.167 C89.785,265.730 90.132,265.370 90.567,265.365 ZM106.298,334.465 C104.414,332.271 103.189,329.480 102.986,326.361 C102.780,323.256 103.632,320.327 105.208,317.888 L106.298,334.465 ZM118.634,203.743 L127.192,214.407 C124.886,213.819 122.743,212.515 121.135,210.507 C119.530,208.512 118.723,206.133 118.634,203.743 ZM132.272,285.470 C138.503,285.058 144.369,286.847 149.114,290.173 C155.431,294.601 159.759,301.754 160.304,310.055 L161.675,330.842 C161.776,332.366 160.617,333.691 159.084,333.794 L154.936,334.066 C154.280,334.109 153.662,333.920 153.162,333.569 C152.497,333.103 152.041,332.353 151.983,331.486 L150.891,314.859 C150.787,313.316 151.948,311.996 153.476,311.895 L156.242,311.710 L156.150,310.330 C155.692,303.334 152.047,297.309 146.727,293.580 C142.731,290.778 137.790,289.272 132.545,289.619 C120.310,290.427 111.047,301.006 111.854,313.253 L111.945,314.635 L114.714,314.454 C115.369,314.410 115.987,314.598 116.487,314.949 C117.153,315.415 117.610,316.170 117.667,317.049 L118.761,333.676 C118.859,335.198 117.702,336.525 116.175,336.629 L112.020,336.898 C111.363,336.942 110.744,336.754 110.244,336.403 C109.580,335.938 109.125,335.185 109.069,334.317 L107.699,313.530 C106.744,298.990 117.743,286.429 132.272,285.470 ZM166.666,322.156 C166.870,325.276 166.020,328.203 164.439,330.629 L163.350,314.047 C165.231,316.257 166.461,319.052 166.666,322.156 ZM165.828,261.006 L155.477,250.499 L160.750,243.453 L173.893,250.229 C176.050,249.130 178.433,248.566 180.832,248.566 C184.011,248.566 187.218,249.558 189.958,251.613 C194.778,255.227 196.851,261.145 195.797,266.693 L205.998,277.048 L200.727,284.091 L187.775,277.417 C185.609,278.526 183.214,279.096 180.803,279.096 C177.623,279.096 174.415,278.104 171.674,276.048 C166.867,272.443 164.792,266.544 165.828,261.006 ZM174.209,273.114 C176.310,274.689 178.767,275.449 181.204,275.449 C184.758,275.449 188.268,273.832 190.563,270.766 C194.430,265.596 193.380,258.268 188.216,254.396 C186.115,252.821 183.658,252.061 181.221,252.061 C177.668,252.061 174.158,253.678 171.864,256.745 C167.996,261.913 169.046,269.244 174.209,273.114 ZM178.949,263.806 C179.248,263.636 179.587,263.548 179.927,263.548 C180.338,263.548 180.753,263.677 181.108,263.942 C181.325,264.105 181.496,264.302 181.624,264.522 L188.466,263.808 L188.649,265.075 L181.823,266.056 C181.760,266.287 181.656,266.511 181.504,266.715 C181.115,267.234 180.522,267.507 179.920,267.507 C179.508,267.507 179.092,267.379 178.737,267.113 C178.066,266.609 177.808,265.765 178.017,265.005 L173.299,261.170 L174.066,260.145 L178.949,263.806 ZM216.839,268.815 C216.974,268.815 217.110,268.857 217.226,268.944 C217.513,269.159 217.570,269.569 217.357,269.855 C217.230,270.025 217.034,270.114 216.835,270.114 C216.700,270.114 216.564,270.073 216.447,269.985 C216.161,269.771 216.102,269.364 216.317,269.077 C216.445,268.906 216.641,268.815 216.839,268.815 ZM218.515,282.958 C218.650,282.958 218.786,283.000 218.903,283.088 C219.190,283.303 219.248,283.710 219.035,283.998 C218.907,284.168 218.712,284.258 218.513,284.258 C218.378,284.258 218.241,284.216 218.125,284.128 C217.839,283.912 217.781,283.505 217.995,283.218 C218.122,283.048 218.317,282.958 218.515,282.958 ZM230.777,266.572 C230.913,266.572 231.049,266.614 231.166,266.702 C231.452,266.919 231.510,267.325 231.295,267.611 C231.168,267.782 230.973,267.871 230.776,267.871 C230.640,267.871 230.504,267.829 230.387,267.743 C230.101,267.526 230.041,267.118 230.256,266.832 C230.383,266.662 230.579,266.572 230.777,266.572 ZM233.535,281.335 C233.670,281.335 233.807,281.377 233.923,281.465 C234.209,281.682 234.269,282.089 234.052,282.375 C233.926,282.545 233.731,282.634 233.534,282.634 C233.399,282.634 233.262,282.592 233.146,282.504 C232.859,282.289 232.800,281.882 233.015,281.596 C233.142,281.425 233.338,281.335 233.535,281.335 Z" class="cls-1"/>
</svg>
