<svg xmlns="http://www.w3.org/2000/svg" xmlns:xlink="http://www.w3.org/1999/xlink" preserveAspectRatio="xMidYMid" width="250" height="335" viewBox="0 0 250 335">
  <defs>
    <style>
      .cls-1 {
        fill: #000;
        opacity: 0.1;
        fill-rule: evenodd;
      }
    </style>
  </defs>
  <path d="M249.998,304.638 L244.727,311.681 L231.775,305.007 C229.609,306.116 227.214,306.686 224.803,306.686 C221.623,306.686 218.415,305.693 215.674,303.638 C210.866,300.033 208.792,294.134 209.828,288.596 L199.477,278.089 L204.750,271.044 L217.893,277.819 C220.050,276.721 222.433,276.156 224.832,276.156 C228.011,276.156 231.218,277.148 233.958,279.203 C238.778,282.816 240.851,288.736 239.797,294.283 L249.998,304.638 ZM232.216,281.986 C230.115,280.411 227.658,279.650 225.221,279.650 C221.668,279.650 218.158,281.268 215.864,284.335 C211.996,289.503 213.046,296.834 218.209,300.704 C220.310,302.279 222.767,303.040 225.204,303.040 C228.758,303.040 232.268,301.422 234.563,298.356 C238.430,293.186 237.380,285.858 232.216,281.986 ZM233.534,298.224 C233.398,298.224 233.262,298.182 233.145,298.094 C232.859,297.879 232.800,297.472 233.015,297.186 C233.142,297.015 233.338,296.925 233.535,296.925 C233.670,296.925 233.807,296.967 233.923,297.055 C234.209,297.272 234.269,297.679 234.052,297.965 C233.926,298.135 233.731,298.224 233.534,298.224 ZM226.504,292.305 C226.115,292.824 225.522,293.097 224.921,293.097 C224.508,293.097 224.092,292.969 223.737,292.703 C223.066,292.199 222.808,291.355 223.017,290.595 L218.299,286.760 L219.066,285.735 L223.949,289.396 C224.249,289.226 224.586,289.138 224.927,289.138 C225.338,289.138 225.753,289.266 226.108,289.531 C226.325,289.695 226.496,289.892 226.624,290.111 L233.467,289.397 L233.649,290.665 L226.823,291.646 C226.760,291.877 226.656,292.101 226.504,292.305 ZM230.776,283.461 C230.641,283.461 230.504,283.419 230.387,283.333 C230.101,283.116 230.041,282.708 230.256,282.422 C230.383,282.252 230.579,282.162 230.777,282.162 C230.913,282.162 231.049,282.204 231.166,282.292 C231.452,282.509 231.510,282.915 231.295,283.201 C231.168,283.372 230.973,283.461 230.776,283.461 ZM218.903,298.678 C219.189,298.893 219.248,299.300 219.035,299.588 C218.907,299.758 218.712,299.848 218.513,299.848 C218.378,299.848 218.241,299.806 218.125,299.718 C217.839,299.502 217.781,299.096 217.995,298.808 C218.122,298.638 218.317,298.548 218.515,298.548 C218.650,298.548 218.787,298.590 218.903,298.678 ZM216.835,285.704 C216.700,285.704 216.564,285.663 216.447,285.575 C216.161,285.361 216.102,284.954 216.317,284.667 C216.445,284.496 216.641,284.406 216.839,284.406 C216.974,284.406 217.110,284.448 217.226,284.534 C217.513,284.749 217.570,285.159 217.357,285.444 C217.230,285.615 217.034,285.704 216.835,285.704 ZM204.427,251.062 C203.120,253.209 200.814,254.397 198.460,254.397 C197.225,254.397 195.977,254.071 194.853,253.385 L178.202,243.225 C174.927,241.229 173.884,236.918 175.878,233.643 L195.696,201.094 C197.002,198.948 199.305,197.759 201.659,197.759 C202.893,197.759 204.142,198.086 205.268,198.774 L221.920,208.933 C225.188,210.924 226.237,215.239 224.244,218.514 L204.427,251.062 ZM187.559,246.621 C188.067,246.932 188.629,247.080 189.184,247.080 C190.240,247.080 191.271,246.544 191.862,245.570 C192.764,244.099 192.299,242.162 190.822,241.260 C190.313,240.949 189.749,240.801 189.193,240.801 C188.133,240.801 187.098,241.337 186.508,242.304 C185.605,243.786 186.079,245.718 187.559,246.621 ZM218.244,211.605 L204.580,203.270 C203.707,202.737 202.739,202.483 201.781,202.484 C199.952,202.484 198.161,203.408 197.146,205.077 L183.158,228.053 C181.609,230.596 182.422,233.944 184.961,235.490 L198.626,243.830 C199.498,244.361 200.464,244.614 201.421,244.614 C203.249,244.614 205.040,243.690 206.057,242.023 L220.045,219.049 C221.593,216.505 220.785,213.156 218.244,211.605 ZM216.141,156.415 L171.592,176.105 C171.112,176.317 170.610,176.418 170.117,176.418 C168.713,176.418 167.377,175.603 166.771,174.236 L154.971,147.478 C154.159,145.631 154.990,143.477 156.840,142.658 L159.064,141.675 L159.558,142.788 L170.697,137.863 L170.207,136.749 L201.393,122.968 C201.873,122.756 202.373,122.656 202.865,122.656 C204.268,122.656 205.605,123.469 206.210,124.835 L218.012,151.594 C218.827,153.441 217.990,155.600 216.141,156.415 ZM170.928,144.423 L169.943,142.192 C169.743,141.739 169.300,141.467 168.831,141.467 C168.667,141.467 168.499,141.501 168.337,141.572 L159.432,145.506 C158.812,145.780 158.535,146.500 158.804,147.117 L159.790,149.346 C159.991,149.803 160.436,150.074 160.904,150.074 C161.069,150.074 161.237,150.040 161.398,149.969 L170.304,146.034 C170.925,145.759 171.199,145.041 170.928,144.423 ZM204.472,126.934 C204.068,126.024 203.180,125.483 202.246,125.483 C201.917,125.483 201.583,125.550 201.262,125.691 C200.034,126.235 199.470,127.674 200.013,128.905 C200.415,129.816 201.313,130.358 202.249,130.358 C202.577,130.358 202.910,130.291 203.228,130.151 C204.460,129.605 205.012,128.166 204.472,126.934 ZM205.424,141.169 C203.011,135.701 197.664,132.447 192.052,132.447 C190.081,132.447 188.076,132.849 186.156,133.697 C178.774,136.959 175.434,145.591 178.692,152.984 C181.105,158.453 186.454,161.706 192.065,161.706 C194.036,161.706 196.040,161.304 197.959,160.456 C205.344,157.192 208.680,148.563 205.424,141.169 ZM196.977,158.228 C195.377,158.935 193.708,159.269 192.066,159.269 C187.389,159.269 182.928,156.558 180.919,152.001 C178.200,145.842 180.987,138.647 187.142,135.927 C188.743,135.220 190.413,134.884 192.056,134.884 C196.732,134.884 201.189,137.597 203.198,142.155 C205.913,148.313 203.137,155.508 196.977,158.228 ZM200.976,143.137 C199.364,139.492 195.795,137.324 192.057,137.324 C190.743,137.324 189.408,137.592 188.130,138.157 C183.202,140.336 180.982,146.083 183.153,151.013 C184.762,154.658 188.326,156.828 192.066,156.828 C193.379,156.828 194.713,156.561 195.992,155.996 C200.910,153.822 203.149,148.063 200.976,143.137 ZM166.991,135.504 C167.153,135.432 167.321,135.399 167.487,135.399 C167.956,135.399 168.401,135.671 168.600,136.128 L169.092,137.244 L160.181,141.182 L159.689,140.067 C159.413,139.450 159.698,138.727 160.306,138.460 L166.991,135.504 ZM182.663,99.299 L174.694,101.446 L174.694,79.977 C168.566,82.431 158.949,103.287 158.949,103.287 C152.224,104.901 146.651,105.496 142.086,105.496 C129.306,105.496 124.442,100.832 124.442,100.832 C119.541,98.380 131.185,97.152 131.185,97.152 C139.762,95.312 158.949,67.094 158.949,67.094 C168.286,55.825 174.701,51.918 179.110,51.918 C189.104,51.918 188.789,72.003 188.789,72.003 C183.275,80.590 182.663,99.299 182.663,99.299 ZM177.436,53.509 C175.494,53.509 171.820,55.387 164.889,62.188 C164.889,62.188 147.277,88.408 142.827,90.407 C142.827,90.407 137.018,95.193 142.112,95.193 C143.840,95.193 146.823,94.642 151.713,93.166 C151.713,93.166 174.082,65.408 179.597,56.360 C179.597,56.360 179.831,53.509 177.436,53.509 ZM154.350,28.637 C156.231,30.847 157.461,33.642 157.666,36.746 C157.870,39.866 157.020,42.794 155.439,45.219 L154.350,28.637 ZM150.084,48.384 L145.936,48.656 C145.280,48.699 144.662,48.510 144.162,48.159 C143.497,47.693 143.041,46.943 142.983,46.076 L141.891,29.449 C141.787,27.906 142.948,26.586 144.476,26.485 L147.242,26.300 L147.150,24.920 C146.693,17.924 143.047,11.899 137.727,8.170 C133.731,5.368 128.790,3.862 123.545,4.209 C111.310,5.017 102.047,15.596 102.854,27.843 L102.945,29.225 L105.714,29.044 C106.369,29.000 106.987,29.188 107.487,29.539 C108.153,30.005 108.610,30.760 108.667,31.640 L109.761,48.266 C109.859,49.788 108.702,51.115 107.175,51.218 L103.020,51.488 C102.363,51.532 101.744,51.344 101.244,50.993 C100.580,50.528 100.125,49.775 100.069,48.907 L98.699,28.120 C97.744,13.580 108.743,1.019 123.272,0.059 C129.503,-0.352 135.369,1.437 140.114,4.763 C146.431,9.191 150.759,16.344 151.304,24.645 L152.675,45.432 C152.776,46.956 151.616,48.281 150.084,48.384 ZM93.986,40.951 C93.780,37.846 94.632,34.917 96.208,32.478 L97.298,49.055 C95.414,46.861 94.189,44.070 93.986,40.951 ZM94.829,56.494 C95.066,56.264 95.371,56.150 95.676,56.150 C95.992,56.150 96.307,56.272 96.546,56.515 L112.195,72.704 L106.871,70.688 L94.803,58.212 C94.335,57.726 94.346,56.960 94.829,56.494 ZM119.573,83.278 L109.276,110.520 C108.544,112.460 106.695,113.656 104.737,113.656 C104.169,113.656 103.591,113.555 103.029,113.342 L62.210,97.883 C59.709,96.935 58.446,94.131 59.393,91.627 L69.689,64.387 C70.421,62.449 72.271,61.249 74.232,61.249 C74.799,61.249 75.377,61.349 75.939,61.562 L116.757,77.021 C119.254,77.967 120.518,80.780 119.573,83.278 ZM88.684,68.990 C86.707,68.241 84.679,67.886 82.684,67.886 C75.833,67.887 69.381,72.072 66.812,78.867 C63.498,87.635 67.909,97.442 76.675,100.761 C78.654,101.510 80.684,101.866 82.680,101.866 C89.533,101.866 95.986,97.679 98.553,90.888 C101.869,82.115 97.454,72.311 88.684,68.990 ZM104.771,98.437 C105.052,98.543 105.339,98.593 105.623,98.593 C106.605,98.593 107.533,97.991 107.899,97.021 C108.371,95.773 107.739,94.367 106.488,93.893 C106.207,93.787 105.918,93.737 105.634,93.737 C104.655,93.737 103.730,94.336 103.365,95.304 C102.893,96.553 103.522,97.963 104.771,98.437 ZM111.636,80.273 C110.931,80.006 110.206,79.879 109.494,79.879 C107.047,79.879 104.741,81.372 103.822,83.801 C102.639,86.933 104.219,90.436 107.347,91.620 C108.054,91.888 108.779,92.014 109.492,92.014 C111.939,92.014 114.243,90.520 115.159,88.096 C116.345,84.958 114.768,81.459 111.636,80.273 ZM109.486,88.378 C109.201,88.378 108.913,88.328 108.631,88.221 C107.383,87.749 106.753,86.341 107.226,85.090 C107.591,84.121 108.516,83.523 109.495,83.523 C109.779,83.523 110.068,83.574 110.349,83.680 C111.600,84.153 112.232,85.558 111.760,86.807 C111.393,87.777 110.467,88.378 109.486,88.378 ZM70.699,79.039 C71.059,78.292 71.494,77.586 71.981,76.931 L95.960,86.012 C95.884,86.824 95.748,87.643 95.525,88.442 L70.699,79.039 ZM76.064,73.289 L95.305,80.576 C95.612,81.488 95.816,82.439 95.923,83.408 L73.723,75.000 C74.449,74.347 75.225,73.766 76.064,73.289 ZM82.708,71.531 C84.268,71.531 85.852,71.806 87.398,72.392 C90.063,73.401 92.212,75.179 93.699,77.373 L79.384,71.951 C80.462,71.675 81.578,71.531 82.708,71.531 ZM93.387,92.820 L69.407,83.738 C69.475,82.925 69.613,82.119 69.841,81.309 L94.667,90.711 C94.302,91.470 93.867,92.163 93.387,92.820 ZM89.299,96.465 L70.058,89.179 C69.747,88.262 69.547,87.315 69.436,86.344 L91.636,94.750 C90.915,95.408 90.134,95.982 89.299,96.465 ZM82.646,98.220 C81.088,98.220 79.503,97.946 77.960,97.361 C75.294,96.350 73.154,94.570 71.665,92.375 L85.980,97.798 C84.899,98.075 83.779,98.220 82.646,98.220 ZM46.402,68.066 L40.265,84.902 L29.799,82.774 L30.392,64.810 C24.982,60.626 22.102,53.597 23.554,46.440 C25.009,39.266 30.420,33.909 37.052,32.182 L43.100,15.589 L53.564,17.718 L52.982,35.419 C58.414,39.599 61.311,46.644 59.855,53.820 C58.403,60.976 53.013,66.324 46.402,68.066 ZM44.239,35.815 C43.286,35.622 42.337,35.529 41.401,35.529 C34.794,35.529 28.877,40.174 27.511,46.907 C25.952,54.596 30.911,62.091 38.591,63.651 C39.544,63.844 40.494,63.938 41.430,63.938 C48.037,63.938 53.955,59.292 55.319,52.561 C56.878,44.873 51.919,37.377 44.239,35.815 ZM53.509,53.798 C53.457,53.798 53.405,53.793 53.352,53.783 C52.926,53.695 52.650,53.279 52.737,52.852 C52.813,52.478 53.144,52.219 53.512,52.219 C53.562,52.219 53.614,52.224 53.666,52.234 C54.092,52.321 54.369,52.740 54.282,53.166 C54.205,53.540 53.876,53.798 53.509,53.798 ZM43.919,38.140 C43.867,38.140 43.815,38.135 43.762,38.124 C43.335,38.037 43.058,37.621 43.147,37.194 C43.223,36.822 43.551,36.563 43.916,36.563 C43.969,36.563 44.023,36.568 44.077,36.579 C44.502,36.664 44.777,37.084 44.690,37.508 C44.614,37.882 44.286,38.140 43.919,38.140 ZM43.672,50.649 C43.468,51.649 42.677,52.370 41.734,52.536 L39.984,59.714 L38.461,59.405 L39.935,52.136 C39.180,51.604 38.767,50.658 38.962,49.694 C39.027,49.370 39.155,49.079 39.329,48.825 L34.987,41.678 L36.282,40.819 L40.908,47.808 C41.048,47.784 41.191,47.770 41.336,47.770 C41.488,47.770 41.642,47.784 41.797,47.816 C43.096,48.081 43.934,49.348 43.672,50.649 ZM38.875,61.418 C38.926,61.418 38.979,61.423 39.031,61.433 C39.457,61.520 39.734,61.938 39.648,62.365 C39.572,62.738 39.244,62.996 38.877,62.996 C38.825,62.996 38.772,62.991 38.719,62.980 C38.293,62.893 38.016,62.477 38.102,62.050 C38.178,61.676 38.509,61.418 38.875,61.418 ZM29.165,48.849 C29.114,48.849 29.061,48.844 29.009,48.833 C28.582,48.747 28.305,48.328 28.393,47.902 C28.471,47.528 28.799,47.271 29.165,47.271 C29.217,47.271 29.269,47.276 29.322,47.287 C29.748,47.372 30.023,47.789 29.939,48.216 C29.862,48.589 29.532,48.849 29.165,48.849 ZM60.434,216.902 C90.419,216.902 67.280,241.591 67.280,241.591 C57.429,244.232 44.402,257.662 44.402,257.662 L37.063,253.884 L51.492,238.000 C50.785,237.736 49.883,237.619 48.840,237.619 C40.754,237.619 24.177,244.643 24.177,244.643 C1.149,231.975 0.296,219.589 0.296,219.589 C-0.237,218.211 0.059,217.708 0.776,217.708 C2.721,217.708 7.758,221.407 7.758,221.407 C9.405,222.365 12.257,222.741 15.715,222.741 C28.179,222.741 48.501,217.865 48.501,217.865 C53.193,217.201 57.132,216.902 60.434,216.902 ZM20.905,224.256 C20.905,224.256 20.668,224.244 20.300,224.244 C17.889,224.244 9.839,224.745 25.625,232.283 C25.625,232.283 60.831,226.808 70.992,223.827 C70.992,223.827 77.055,218.163 59.772,218.164 C58.676,218.164 57.484,218.187 56.193,218.235 C56.193,218.235 30.890,224.458 22.787,224.458 C21.971,224.458 21.329,224.395 20.905,224.256 ZM53.327,287.795 C53.433,287.793 53.538,287.793 53.644,287.793 C60.823,287.793 67.075,291.897 70.144,297.918 L87.634,300.255 L87.812,310.942 L70.418,314.187 C67.511,320.397 61.262,324.747 53.948,324.869 C53.842,324.871 53.737,324.872 53.631,324.872 C46.470,324.872 40.231,320.787 37.153,314.789 L19.405,312.417 L19.227,301.727 L36.879,298.437 C39.795,292.247 46.032,287.918 53.327,287.795 ZM53.955,320.167 C54.036,320.167 54.118,320.166 54.200,320.165 C62.035,320.032 68.279,313.569 68.148,305.726 C68.017,297.964 61.691,291.761 53.966,291.762 C53.886,291.762 53.805,291.763 53.724,291.764 C45.888,291.897 39.645,298.358 39.777,306.202 C39.906,313.963 46.232,320.167 53.955,320.167 ZM41.259,306.958 C41.255,306.958 41.251,306.958 41.247,306.958 C40.817,306.958 40.465,306.614 40.458,306.182 C40.451,305.747 40.798,305.387 41.233,305.379 C41.237,305.378 41.241,305.378 41.246,305.378 C41.675,305.378 42.027,305.725 42.035,306.154 C42.042,306.589 41.694,306.950 41.259,306.958 ZM53.472,303.558 C53.485,303.557 53.498,303.557 53.511,303.557 C53.826,303.557 54.124,303.619 54.399,303.729 L60.435,297.945 L61.553,299.027 L55.731,305.053 C55.842,305.322 55.909,305.614 55.915,305.924 C55.937,307.252 54.880,308.343 53.555,308.368 C53.542,308.368 53.529,308.368 53.516,308.368 C52.514,308.368 51.657,307.754 51.297,306.880 L43.918,306.716 L43.890,305.160 L51.299,305.035 C51.656,304.182 52.489,303.575 53.472,303.558 ZM53.359,317.703 C53.363,317.703 53.367,317.703 53.372,317.703 C53.801,317.703 54.153,318.048 54.162,318.478 C54.169,318.913 53.820,319.274 53.385,319.281 C53.382,319.281 53.378,319.281 53.374,319.281 C52.944,319.281 52.592,318.937 52.584,318.505 C52.577,318.070 52.924,317.710 53.359,317.703 ZM52.970,294.419 C52.967,294.419 52.963,294.419 52.959,294.419 C52.529,294.419 52.174,294.074 52.167,293.643 C52.160,293.207 52.509,292.846 52.944,292.840 C52.947,292.840 52.950,292.840 52.953,292.840 C53.384,292.840 53.737,293.185 53.744,293.616 C53.752,294.051 53.405,294.410 52.970,294.419 ZM66.567,304.955 C66.571,304.955 66.575,304.955 66.579,304.955 C67.009,304.955 67.363,305.300 67.368,305.732 C67.377,306.165 67.026,306.525 66.594,306.531 C66.589,306.531 66.585,306.531 66.581,306.531 C66.152,306.531 65.800,306.188 65.793,305.757 C65.785,305.320 66.132,304.960 66.567,304.955 ZM100.048,166.032 L85.995,179.566 C83.233,182.228 78.803,182.140 76.146,179.378 L49.738,151.915 C47.996,150.103 47.433,147.573 48.032,145.294 C48.346,144.099 48.980,142.974 49.931,142.058 L63.983,128.524 C66.738,125.867 71.174,125.949 73.831,128.711 L100.238,156.174 C101.981,157.985 102.543,160.519 101.944,162.799 C101.630,163.994 100.997,165.118 100.048,166.032 ZM87.218,171.291 C88.421,172.543 90.408,172.575 91.657,171.373 C92.086,170.960 92.373,170.453 92.514,169.916 C92.782,168.893 92.527,167.759 91.737,166.939 C90.544,165.692 88.554,165.650 87.307,166.850 C86.877,167.264 86.591,167.771 86.449,168.310 C86.180,169.336 86.434,170.475 87.218,171.291 ZM91.920,152.296 L73.280,132.912 C71.215,130.767 67.774,130.697 65.630,132.762 L54.100,143.869 C53.363,144.578 52.871,145.450 52.628,146.377 C52.163,148.148 52.601,150.117 53.955,151.525 L72.597,170.909 C74.660,173.055 78.101,173.120 80.242,171.055 L91.775,159.950 C92.510,159.241 93.000,158.370 93.244,157.443 C93.709,155.674 93.272,153.705 91.920,152.296 ZM147.971,213.235 L105.516,232.608 L92.802,204.690 L135.257,185.318 L147.971,213.235 ZM94.391,205.391 L105.536,229.864 L145.888,211.451 L134.743,186.979 L94.391,205.391 ZM106.618,232.747 L148.944,213.432 L155.707,212.842 L102.812,237.021 L106.618,232.747 ZM103.900,236.732 L154.790,213.510 C155.089,213.373 155.404,213.308 155.713,213.308 C156.559,213.308 157.367,213.794 157.740,214.614 C158.252,215.735 157.758,217.058 156.638,217.569 L105.749,240.790 C105.450,240.927 105.136,240.991 104.827,240.991 C103.981,240.991 103.172,240.507 102.797,239.686 C102.288,238.565 102.782,237.243 103.900,236.732 ZM162.096,298.158 C163.706,300.165 164.514,302.541 164.593,304.924 L156.033,294.256 C158.345,294.857 160.493,296.161 162.096,298.158 ZM121.589,289.676 C125.597,286.452 130.397,284.886 135.167,284.886 C141.517,284.886 147.810,287.663 152.096,293.004 L162.829,306.375 C163.616,307.355 163.460,308.796 162.475,309.590 L159.806,311.735 C159.384,312.074 158.877,312.238 158.375,312.238 C157.707,312.238 157.045,311.948 156.597,311.391 L148.014,300.694 C147.216,299.702 147.376,298.263 148.359,297.473 L150.137,296.040 L149.423,295.153 C145.814,290.650 140.513,288.311 135.164,288.311 C131.148,288.311 127.104,289.631 123.731,292.345 C115.861,298.674 114.606,310.188 120.929,318.066 L121.643,318.954 L123.425,317.523 C123.846,317.184 124.352,317.018 124.854,317.018 C125.523,317.018 126.188,317.312 126.641,317.878 L135.225,328.574 C136.009,329.554 135.855,330.995 134.874,331.787 L132.199,333.933 C131.777,334.274 131.271,334.439 130.768,334.439 C130.100,334.439 129.438,334.147 128.991,333.588 L118.258,320.216 C110.753,310.862 112.243,297.191 121.589,289.676 ZM121.135,331.097 C119.530,329.102 118.722,326.723 118.634,324.333 L127.192,334.998 C124.886,334.409 122.743,333.105 121.135,331.097 ZM157.678,325.129 C164.740,323.613 180.538,300.380 180.538,300.380 C188.225,291.102 193.507,287.885 197.138,287.885 C205.366,287.885 205.106,304.422 205.106,304.422 C200.567,311.492 200.063,326.896 200.063,326.896 L193.501,328.665 L193.501,310.988 C188.456,313.008 180.538,330.180 180.538,330.180 C175.001,331.509 170.412,331.998 166.654,331.998 C156.131,331.998 152.126,328.158 152.126,328.158 C148.092,326.139 157.678,325.129 157.678,325.129 ZM166.675,323.516 C168.098,323.516 170.554,323.062 174.580,321.847 C174.580,321.847 192.998,298.992 197.538,291.542 C197.538,291.542 197.731,289.195 195.759,289.195 C194.160,289.195 191.135,290.741 185.429,296.341 C185.429,296.341 170.928,317.929 167.264,319.575 C167.264,319.575 162.481,323.516 166.675,323.516 Z" class="cls-1"/>
</svg>
