<svg  xmlns="http://www.w3.org/2000/svg" xmlns:xlink="http://www.w3.org/1999/xlink" x="0px" y="0px"
	 width="16.707px" height="16.707px" viewBox="0 0 16.707 16.707" enable-background="new 0 0 16.707 16.707" xml:space="preserve">
<path fill="#000" d="M11.566,7.068c0,2.48-2.018,4.498-4.498,4.498S2.57,9.548,2.57,7.068S4.588,2.57,7.068,2.57
	S11.566,4.588,11.566,7.068z M16.707,15.422c0-0.341-0.141-0.673-0.371-0.904l-3.444-3.444c0.813-1.175,1.245-2.581,1.245-4.006
	C14.137,3.163,10.975,0,7.068,0S0,3.163,0,7.068c0,3.905,3.162,7.068,7.068,7.068c1.426,0,2.831-0.432,4.006-1.245l3.443,3.434
	c0.231,0.241,0.563,0.382,0.904,0.382C16.125,16.707,16.707,16.125,16.707,15.422z"/>
</svg> 