<svg  xmlns="http://www.w3.org/2000/svg" xmlns:xlink="http://www.w3.org/1999/xlink" x="0px" y="0px"
	 width="22.852px" height="27.422px" viewBox="0 0 22.852 27.422" enable-background="new 0 0 22.852 27.422" xml:space="preserve">
<path fill="none" d="M19.424,14.854c0,2.589-2.285,4.928-4.195,6.428c-1.429,1.124-2.893,1.963-3.803,2.445V3.428h7.998V14.854z
	 M22.852,1.143C22.852,0.518,22.334,0,21.709,0H1.143C0.518,0,0,0.518,0,1.143v13.711c0,7.516,10.516,12.266,10.962,12.461
	c0.143,0.072,0.303,0.107,0.464,0.107c0.16,0,0.321-0.035,0.464-0.107c0.446-0.195,10.962-4.945,10.962-12.461V1.143z"/>
</svg>
