<svg xmlns="http://www.w3.org/2000/svg" xmlns:xlink="http://www.w3.org/1999/xlink" preserveAspectRatio="xMidYMid" width="116" height="95.816" viewBox="0 0 116 95.816">
  <defs>
    <style>
      .cls-1 {
        fill: #474747;
        fill-rule: evenodd;
      }
    </style>
  </defs>
  <path d="M105.913,95.818 L17.652,95.818 C12.082,95.818 7.565,91.302 7.565,85.732 L7.565,37.460 C3.220,36.336 -0.000,32.427 -0.000,27.732 L-0.000,20.235 C-0.000,20.230 -0.000,20.227 -0.000,20.222 L-0.000,20.166 C-0.000,19.770 0.108,19.410 0.270,19.075 C0.282,19.052 0.300,19.037 0.313,19.016 C0.479,18.696 0.714,18.431 0.996,18.209 L18.219,0.989 C18.678,0.399 19.367,-0.008 20.174,-0.008 L20.227,-0.008 C20.232,-0.008 20.237,-0.008 20.242,-0.008 L35.357,-0.008 C35.362,-0.008 35.367,-0.008 35.372,-0.008 L50.488,-0.008 C50.493,-0.008 50.498,-0.008 50.503,-0.008 L65.618,-0.008 C65.623,-0.008 65.628,-0.008 65.633,-0.008 L80.749,-0.008 C80.754,-0.008 80.759,-0.008 80.764,-0.008 L105.913,-0.008 C111.483,-0.008 116.000,4.509 116.000,10.079 L116.000,10.079 L116.000,85.732 C116.000,91.302 111.483,95.818 105.913,95.818 ZM35.304,90.775 L35.304,90.775 L35.304,68.079 L25.217,68.079 L25.217,90.775 L25.217,90.775 L35.304,90.775 ZM5.043,27.732 C5.043,30.515 7.303,32.775 10.087,32.775 C12.871,32.775 15.130,30.515 15.130,27.732 L15.130,22.688 L5.043,22.688 L5.043,27.732 ZM21.135,5.036 L8.526,17.645 L16.691,17.645 L29.300,5.036 L21.135,5.036 ZM20.174,27.732 C20.174,30.515 22.433,32.775 25.217,32.775 C28.001,32.775 30.261,30.515 30.261,27.732 L30.261,22.688 L20.174,22.688 L20.174,27.732 ZM36.265,5.036 L23.656,17.645 L31.822,17.645 L44.430,5.036 L36.265,5.036 ZM35.304,27.732 C35.304,30.515 37.564,32.775 40.348,32.775 C43.132,32.775 45.391,30.515 45.391,27.732 L45.391,22.688 L35.304,22.688 L35.304,27.732 ZM51.395,5.036 L38.787,17.645 L46.952,17.645 L59.561,5.036 L51.395,5.036 ZM50.435,27.732 C50.435,30.515 52.694,32.775 55.478,32.775 C58.262,32.775 60.522,30.515 60.522,27.732 L60.522,22.688 L50.435,22.688 L50.435,27.732 ZM66.526,5.036 L53.917,17.645 L62.083,17.645 L74.691,5.036 L66.526,5.036 ZM78.174,8.518 L65.565,21.127 L65.565,27.732 C65.565,33.302 61.049,37.818 55.478,37.818 C52.450,37.818 49.761,36.454 47.913,34.341 C46.065,36.454 43.376,37.818 40.348,37.818 C37.319,37.818 34.631,36.454 32.783,34.341 C30.934,36.454 28.246,37.818 25.217,37.818 C22.184,37.818 19.498,36.454 17.647,34.336 C16.333,35.826 14.598,36.946 12.609,37.460 L12.609,85.732 C12.609,88.516 14.868,90.775 17.652,90.775 L20.174,90.775 L20.174,90.775 L20.174,65.558 C20.174,64.163 21.301,63.036 22.696,63.036 L37.826,63.036 C39.221,63.036 40.348,64.163 40.348,65.558 L40.348,90.775 L40.348,90.775 L73.130,90.775 C75.914,90.775 78.174,88.516 78.174,85.732 L78.174,8.518 ZM110.956,10.079 C110.956,7.296 108.697,5.036 105.913,5.036 L83.217,5.036 L83.217,85.732 C83.217,87.577 82.685,89.287 81.818,90.775 L105.913,90.775 C108.697,90.775 110.956,88.516 110.956,85.732 L110.956,10.079 ZM68.087,68.079 L68.087,68.079 L47.913,68.079 L47.913,68.079 C46.518,68.079 45.391,66.952 45.391,65.558 L45.391,47.906 C45.391,46.511 46.518,45.384 47.913,45.384 L68.087,45.384 C69.481,45.384 70.609,46.511 70.609,47.906 L70.609,65.558 C70.609,66.952 69.481,68.079 68.087,68.079 ZM65.565,50.427 L50.435,50.427 L50.435,63.036 L65.565,63.036 L65.565,50.427 Z" class="cls-1"/>
</svg>
