<svg  xmlns="http://www.w3.org/2000/svg" xmlns:xlink="http://www.w3.org/1999/xlink" x="0px" y="0px"
	 width="47.988px" height="47.988px" viewBox="0 0 47.988 47.988" enable-background="new 0 0 47.988 47.988" xml:space="preserve">
  <path fill="none" d="M16.309,21.852l2.945,8.998h9.507l2.919-8.998l-7.686-5.57L16.309,21.852z M23.994,0
	C10.738,0,0,10.738,0,23.994s10.738,23.994,23.994,23.994c13.255,0,23.994-10.738,23.994-23.994S37.249,0,23.994,0z M40.57,36.151
	l-0.804-3.534l-8.729,1.07l-3.723,7.98l3.106,1.848c-2.009,0.67-4.178,1.045-6.427,1.045c-2.25,0-4.419-0.375-6.428-1.045
	l3.106-1.848l-3.722-7.98l-8.73-1.07l-0.803,3.534c-2.518-3.428-3.99-7.604-3.99-12.157c0-0.027,0-0.054,0-0.08l2.731,2.383
	l6.427-5.998l-1.66-8.65L7.311,11.97c2.544-3.508,6.186-6.213,10.417-7.552l-1.419,3.321l7.686,4.258l7.686-4.258l-1.42-3.321
	c4.231,1.339,7.873,4.044,10.418,7.552l-3.589-0.321l-1.688,8.65l6.428,5.998l2.731-2.383c0,0.026,0,0.053,0,0.08
	C44.561,28.547,43.088,32.724,40.57,36.151z"/>
</svg>
