<svg  xmlns="http://www.w3.org/2000/svg" xmlns:xlink="http://www.w3.org/1999/xlink" x="0px" y="0px"
	 width="27.422px" height="27.422px" viewBox="0 0 27.422 27.422" enable-background="new 0 0 27.422 27.422" xml:space="preserve">
<path fill="none" d="M15.996,7.427c0-0.321-0.25-0.571-0.571-0.571h-1.143c-0.321,0-0.571,0.25-0.571,0.571v6.284H9.712
	c-0.321,0-0.571,0.25-0.571,0.571v1.143c0,0.321,0.25,0.571,0.571,0.571h5.713c0.321,0,0.571-0.25,0.571-0.571V7.427z
	 M23.423,13.711c0,5.355-4.356,9.712-9.712,9.712s-9.712-4.356-9.712-9.712s4.356-9.712,9.712-9.712S23.423,8.355,23.423,13.711z
	 M27.422,13.711C27.422,6.142,21.28,0,13.711,0S0,6.142,0,13.711c0,7.57,6.142,13.711,13.711,13.711S27.422,21.281,27.422,13.711z"
	/>
</svg> 