<svg xmlns="http://www.w3.org/2000/svg" xmlns:xlink="http://www.w3.org/1999/xlink" preserveAspectRatio="xMidYMid" width="116" height="103.097" viewBox="0 0 116 103.097">
  <defs>
    <style>
      .cls-1 {
        fill: #474747;
        fill-rule: evenodd;
      }
    </style>
  </defs>
  <path d="M116.000,90.530 L116.000,90.530 C116.000,97.476 110.356,103.104 103.391,103.104 L103.391,103.104 L12.609,103.104 L12.609,103.104 C5.644,103.104 -0.000,97.476 -0.000,90.530 L-0.000,17.605 C-0.000,12.050 4.516,7.546 10.087,7.546 L10.087,7.546 L60.953,7.546 L81.376,0.168 C82.670,-0.302 84.102,0.364 84.574,1.650 L86.725,7.546 L95.826,7.546 C101.397,7.546 105.913,12.050 105.913,17.605 L105.913,22.634 L105.913,22.634 C111.484,22.634 116.000,27.138 116.000,32.693 L116.000,90.530 ZM10.087,12.576 L10.087,12.576 C7.303,12.576 5.043,14.829 5.043,17.605 C5.043,20.381 7.303,22.634 10.087,22.634 L18.774,22.634 L18.774,22.634 L19.251,22.634 C19.284,22.622 19.304,22.594 19.337,22.582 L47.030,12.576 L10.087,12.576 ZM83.414,13.031 L80.736,5.678 L80.733,5.678 L80.733,5.678 L75.561,7.546 L75.569,7.546 L61.664,12.576 L61.639,12.576 L33.801,22.634 L86.914,22.634 L83.414,13.031 ZM100.870,17.605 C100.870,14.829 98.610,12.576 95.826,12.576 L88.556,12.576 L92.222,22.634 L100.870,22.634 L100.870,22.634 L100.870,17.605 ZM105.913,27.664 L10.087,27.664 L10.087,27.664 C8.241,27.664 6.531,27.133 5.043,26.268 L5.043,90.530 C5.043,94.697 8.433,98.074 12.609,98.074 L103.391,98.074 C107.570,98.074 110.956,94.697 110.956,90.530 L110.956,72.928 L100.870,72.928 C95.299,72.928 90.783,68.424 90.783,62.869 C90.783,57.314 95.299,52.811 100.870,52.811 L110.956,52.811 L110.956,32.693 C110.956,29.917 108.697,27.664 105.913,27.664 ZM110.956,67.898 L110.956,57.840 L100.870,57.840 C98.086,57.840 95.826,60.093 95.826,62.869 C95.826,65.645 98.086,67.898 100.870,67.898 L110.956,67.898 ZM100.870,60.355 L105.913,60.355 L105.913,65.384 L100.870,65.384 L100.870,60.355 Z" class="cls-1"/>
</svg>
