<svg id="Out_line" height="512" viewBox="0 0 512 512" width="512" xmlns="http://www.w3.org/2000/svg" data-name="Out line">
	<path d="m488 16h-464a8.00039 8.00039 0 0 0 -8 8v464a8.00039 8.00039 0 0 0 8 8h464a8.00039 8.00039 0 0 0 8-8v-464a8.00039 8.00039 0 0 0 -8-8zm-8 464h-448v-384h432v-16h-432v-48h448z" />
	<circle cx="56" cy="56" r="8" />
	<circle cx="88" cy="56" r="8" />
	<circle cx="120" cy="56" r="8" />
	<path d="m243.31348 392 39.59863-39.59766a8.00062 8.00062 0 0 0 -.001-11.31445 71.99547 71.99547 0 0 0 -122.8247 47.51123l-35.39989 35.40088h-52.68652v16h56a8.00235 8.00235 0 0 0 5.65723-2.34277l28.439-28.439a71.994 71.994 0 0 0 120.81494 33.69385 8.00062 8.00062 0 0 0 .001-11.31445zm-11.31348 56a56 56 0 1 1 33.543-100.85645l-39.2002 39.19922a8.00122 8.00122 0 0 0 0 11.31446l39.2002 39.19922a55.58372 55.58372 0 0 1 -33.543 11.14355z" />
	<path d="m456 112h-32a8.00039 8.00039 0 0 0 -8 8v48h-16v-16a8.00039 8.00039 0 0 0 -8-8h-32a8.00039 8.00039 0 0 0 -8 8v32h-24a8.00039 8.00039 0 0 0 -8 8v48a8.00039 8.00039 0 0 0 8 8h128a8.00039 8.00039 0 0 0 8-8v-120a8.00039 8.00039 0 0 0 -8-8zm-120 88h16v32h-16zm32-8v-32h16v72h-16zm32-8h16v48h-16zm48 48h-16v-104h16z" />
	<path d="m104 280h32v16h-32z" />
	<path d="m152 280h64v16h-64z" />
	<path d="m232 280h16v16h-16z" />
	<path d="m378.34277 346.34277-28.4165 28.41651a71.54274 71.54274 0 0 0 -19.01416-33.67041 8.00062 8.00062 0 0 0 -11.31445-.001l-45.25489 45.25488a8.00122 8.00122 0 0 0 0 11.31446l45.25489 45.25488a8.00062 8.00062 0 0 0 11.31445-.001 71.48131 71.48131 0 0 0 21.00537-47.51409l35.396-35.397h44.68652v-16h-48a8.00235 8.00235 0 0 0 -5.65723 2.34277zm-53.48632 79.20023-33.54297-33.543 33.543-33.543a56.05528 56.05528 0 0 1 0 67.08594z" />
	<path d="m384 312h48v16h-48z" />
	<path d="m72 392h48v16h-48z" />
	<path d="m296 192h-240a8.00039 8.00039 0 0 1 -8-8v-64a8.00039 8.00039 0 0 1 8-8h240a8.00039 8.00039 0 0 1 8 8v64a8.00039 8.00039 0 0 1 -8 8zm-232-16h224v-48h-224z" />
	<path d="m208 256h-136a8.00039 8.00039 0 0 1 -8-8v-32a8.00039 8.00039 0 0 1 8-8h136a8.00039 8.00039 0 0 1 8 8v32a8.00039 8.00039 0 0 1 -8 8zm-128-16h120v-16h-120z" />
	<path d="m256 256a24 24 0 1 1 24-24 24.0275 24.0275 0 0 1 -24 24zm0-32a8 8 0 1 0 8 8 8.00917 8.00917 0 0 0 -8-8z" /></svg>
