<svg xmlns="http://www.w3.org/2000/svg" width="19" height="22" viewBox="0 0 19 22">
  <defs>
    <style>
      .cls-1 {
        fill: #fff;
        fill-rule: evenodd;
      }
    </style>
  </defs>
  <path class="cls-1" d="M1748.49,48.256q-4.4,0-8.78,0a0.618,0.618,0,0,1-.66-0.243,0.642,0.642,0,0,1,.14-0.679c0.45-.721.89-1.452,1.35-2.172a7.968,7.968,0,0,0,1.29-4.488,13.355,13.355,0,0,1,.15-3.341,6.383,6.383,0,0,1,4.23-4.725,0.475,0.475,0,0,0,.39-0.553c-0.02-.443-0.01-0.889.01-1.332a1.883,1.883,0,0,1,3.75-.042c0.03,0.486.03,0.974,0.02,1.461a0.383,0.383,0,0,0,.31.437,6.457,6.457,0,0,1,4.47,6.2,22.569,22.569,0,0,0,.1,3.389,7.274,7.274,0,0,0,.96,2.616c0.52,0.853,1.04,1.7,1.57,2.546a0.637,0.637,0,0,1,.14.678,0.624,0.624,0,0,1-.66.245C1754.34,48.255,1751.42,48.256,1748.49,48.256Zm-2.94.949h5.85a3.146,3.146,0,0,1-2.71,1.8A3.286,3.286,0,0,1,1745.55,49.205Z" transform="translate(-1739 -29)"/>
</svg>
