<svg version="1.1" id="Layer_1" xmlns="http://www.w3.org/2000/svg" xmlns:xlink="http://www.w3.org/1999/xlink" x="0px" y="0px"
viewBox="0 0 512 512" enable-background="new 0 0 512 512" xml:space="preserve">
<path fill="#FF3A59" d="M421.5,312.3H155.4L125,175.9l-5.2-22.2l-7.4-34.8c0,0,0,0,0-0.7s0-0.7-0.7-1.5c0,0,0-0.7-0.7-0.7
c0,0,0-0.7-0.7-0.7l-0.7-0.7l-0.7-0.7l-0.7-0.7c0,0,0,0-0.7-0.7L67.9,81.1c0-0.7,0-1.5,0-2.2C67.9,64.8,56,53,42,53S16,64.7,16,78.8
s11.9,25.9,25.9,25.9c5.2,0,10.4-1.5,14.8-4.4l35.6,27.4L136,325.6l0,0l-41.5,57.1c-2.2,3.7-3,8.2-0.7,11.9s5.9,5.9,9.6,5.9h29.7
c-5.9,5.9-9.6,14.1-9.6,23.7c0,19.3,15.6,34.8,34.8,34.8s34.8-15.6,34.8-34.8c0-8.9-3.7-17-9.6-23.7h215c-5.9,5.9-9.6,14.1-9.6,23.7
c0,19.3,15.6,34.8,34.8,34.8s34.8-15.6,34.8-34.8c0-8.9-3.7-17-9.6-23.7h24.5c5.9,0,11.1-5.2,11.1-11.1s-5.2-11.1-11.1-11.1H125
l31.9-44.5h272.8c5.2,0,9.6-3.7,10.4-8.2l55.6-202.4c1.5-5.9-1.5-11.9-7.4-13.3c-5.9-1.5-11.9,1.5-13.3,7.4l-9.6,34.8l-5.9,22.2"/>
<polygon fill="#FF3A59" points="134.6,148.5 167.2,297.5 410.4,297.5 451.1,148.5 "/>
</svg>