<svg xmlns="http://www.w3.org/2000/svg" width="64" height="43" viewBox="0 0 64 43">
	<defs>
		<style>
			.cls-1 {
				fill: #ff3a59;
				fill-rule: evenodd;
			}

		</style>
	</defs>
	<path class="cls-1" d="M737,313.6v-3.071A5.54,5.54,0,0,0,731.461,305H678.539A5.54,5.54,0,0,0,673,310.529V313.6h64Zm-20.923,19.657a1.843,1.843,0,1,0,1.846,1.843A1.847,1.847,0,0,0,716.077,333.257ZM673,317.286h64v3.685H673v-3.685Zm0,7.371v17.814A5.54,5.54,0,0,0,678.539,348h52.922A5.54,5.54,0,0,0,737,342.471V324.657H673Zm17.231,12.286h-7.385a1.843,1.843,0,1,1,0-3.686h7.385A1.843,1.843,0,1,1,690.231,336.943Zm33.23,3.685a5.524,5.524,0,0,1-3.692-1.412,5.529,5.529,0,1,1,0-8.232A5.532,5.532,0,1,1,723.461,340.628Zm0-7.371a1.843,1.843,0,1,0,1.847,1.843A1.847,1.847,0,0,0,723.461,333.257Z" transform="translate(-673 -305)" />
</svg>
