<svg xmlns="http://www.w3.org/2000/svg" width="23" height="19" viewBox="0 0 23 19">
  <defs>
    <style>
      .cls-1 {
        fill: #666;
        fill-rule: evenodd;
      }
    </style>
  </defs>
  <path class="cls-1" d="M263,474.756a1.135,1.135,0,0,1-.661.486c-2.89,1.433-5.787,2.849-8.67,4.294-0.652.326-.963,0.384-0.986-0.528-0.06-2.424-.095-2.423-2.539-2.423-1.638,0-3.276-.031-4.912.013a0.843,0.843,0,0,1-1.034-1.031c0.059-3.093-.333-2.528,2.463-2.572,1.677-.026,3.355-0.042,5.031.011a0.816,0.816,0,0,0,1.027-.991c0.012-2.428.044-2.426,2.22-1.354q3.534,1.742,7.07,3.481A2.178,2.178,0,0,1,263,474.756Zm-23,9.537a5.177,5.177,0,0,1,.583-0.422c3-1.487,6-2.957,8.987-4.459,0.7-.35.865-0.177,0.891,0.558,0.086,2.44.11,2.439,2.647,2.439,1.637,0,3.274.019,4.911-.008a0.757,0.757,0,0,1,.927.891c-0.045,3.334.36,2.649-2.562,2.706-1.636.033-3.275,0.039-4.911-.008-0.751-.022-1.042.161-1.046,0.972-0.011,2.439-.047,2.437-2.308,1.323C245.448,486.969,242.776,485.658,240,484.293Z" transform="translate(-240 -470)"/>
</svg>
