<svg xmlns="http://www.w3.org/2000/svg" width="19" height="19" viewBox="0 0 19 19">
  <defs>
    <style>
      .cls-1 {
        fill: #666;
        fill-rule: evenodd;
      }
    </style>
  </defs>
  <path class="cls-1" d="M251.5,423a9.5,9.5,0,1,1-9.5,9.5A9.5,9.5,0,0,1,251.5,423Zm-5.265,4.745s-1.2-.42.68-1.019a7.328,7.328,0,0,1,3.056-.68s5.083-.8,4.926,6.114V434.2h1.868s0.709-.038.339,1.019l-3.566,3.567a0.7,0.7,0,0,1-1.019-.17l-3.4-3.4s-0.522-.8.51-0.849h1.528v-3.057a3.787,3.787,0,0,0-.679-2.547S249.547,427.362,246.235,427.745Z" transform="translate(-242 -423)"/>
</svg>
