<svg xmlns="http://www.w3.org/2000/svg" width="22.25" height="19.5" viewBox="0 0 22.25 19.5">
	<defs>
		<style>
			.cls-1 {
				fill: #666;
				fill-rule: evenodd;
			}

		</style>
	</defs>
	<path id="Forma_1" data-name="Forma 1" class="cls-1" d="M255.407,178.9l-4.489-6.731a1.259,1.259,0,0,0-.816-0.408,0.928,0.928,0,0,0-.816.408L244.8,178.9h-4.9a0.964,0.964,0,0,0-1.02,1.02v0.306l2.55,9.485a2.081,2.081,0,0,0,1.939,1.53h13.262a1.966,1.966,0,0,0,1.938-1.53l2.551-9.485v-0.306a0.964,0.964,0,0,0-1.02-1.02h-4.693Zm-8.366,0,3.061-4.487,3.061,4.487h-6.122Zm3.061,8.159a2.04,2.04,0,1,1,2.04-2.039A2.046,2.046,0,0,1,250.1,187.058Z" transform="translate(-238.875 -171.75)" />
</svg>
