<svg xmlns="http://www.w3.org/2000/svg" width="65" height="53" viewBox="0 0 65 53">
	<defs>
		<style>
			.cls-1 {
				fill: #4dc471;
				fill-rule: evenodd;
			}

		</style>
	</defs>
	<path fill="#4dc471" id="Forma_1" data-name="Forma 1" class="cls-1" d="M1743.18,293h-44.6a4.847,4.847,0,0,0-4.82,4.84v27.844a4.847,4.847,0,0,0,4.82,4.84h30.75l6.95,7.051a1.5,1.5,0,0,0,1.07.478,1.538,1.538,0,0,0,1.55-1.554v-5.975h4.28a4.847,4.847,0,0,0,4.82-4.84V297.84A4.847,4.847,0,0,0,1743.18,293Zm-37.76,23.96a4.481,4.481,0,1,1,4.46-4.481A4.5,4.5,0,0,1,1705.42,316.96Zm15.64,0a4.481,4.481,0,1,1,4.46-4.481A4.5,4.5,0,0,1,1721.06,316.96Zm15.58,0a4.481,4.481,0,1,1,4.46-4.481A4.5,4.5,0,0,1,1736.64,316.96Zm-45.61,8.844v-9.5h-4.88a3.182,3.182,0,0,0-3.15,3.167v18.284a3.136,3.136,0,0,0,3.15,3.286h2.8v3.944a1.04,1.04,0,0,0,1.01,1.016,0.991,0.991,0,0,0,.71-0.3l4.58-4.6h20.22a3.182,3.182,0,0,0,3.15-3.167v-4.541h-20.04A7.581,7.581,0,0,1,1691.03,325.8Z" transform="translate(-1683 -293)" />
</svg>
