<svg xmlns="http://www.w3.org/2000/svg" width="60" height="53" viewBox="0 0 60 53">
	<defs>

	</defs>
	<path fill="#fcac2d" class="cls-1" d="M1048.13,299.175a22.7,22.7,0,0,0-2.68,4.084,0.77,0.77,0,0,1-1.17.406c-0.97-.339-2-0.5-2.94-0.9-1.23-.511-1.45-0.051-1.45,1.116,0.03,8.943.02,17.887,0.02,26.831,0,3.544.03,7.09-.02,10.634-0.01,1.05.22,1.345,1.28,1.016q8.43-2.612,16.87-5.108a1.356,1.356,0,0,0,1.1-1.634c-0.05-2.944.02-5.89-.04-8.834-0.02-1.123.08-1.844,1.5-1.762a6.751,6.751,0,0,0,2.52-.5c1.2-.42,1.44,0,1.42,1.163-0.06,4.143-.01,8.289-0.03,12.433-0.01,2.161-.57,2.938-2.61,3.561-7.78,2.379-15.57,4.732-23.36,7.117a4.133,4.133,0,0,1-2.53-.011q-11.745-3.6-23.52-7.133a3.1,3.1,0,0,1-2.49-3.315q0.015-15.868,0-31.739a2.97,2.97,0,0,1,2.39-3.217c1.92-.525,3.83-1.112,5.71-1.769,1.2-.417,1.45-0.049,1.43,1.134-0.06,3.38.03,6.764-.05,10.143-0.03,1.317.37,1.655,1.58,1.256a16.575,16.575,0,0,1,2.05-.427c2.44-.47,2.44-0.469,2.44-2.873,0-3.381.03-6.763-.02-10.143a1.46,1.46,0,0,1,1.24-1.714c3.17-.881,6.32-1.838,9.47-2.787a2.5,2.5,0,0,1,1.42-.169C1041.11,297.056,1044.54,298.1,1048.13,299.175Zm0.27,10.659a10.8,10.8,0,1,1,21.6-.068A10.8,10.8,0,1,1,1048.4,309.834Zm9.36,4.276a4.066,4.066,0,0,0,.55-0.37q2.91-2.93,5.81-5.875a0.589,0.589,0,0,0,.18-0.823c-0.82-1.511-1.81-1.691-3.01-.48-0.76.768-1.58,1.481-2.26,2.32-0.82,1.025-1.53,1.23-2.34.044-0.55-.8-0.99-0.763-1.76-0.069-1.06.966-1.12,1.62,0.02,2.513a24.451,24.451,0,0,1,2.07,2.054C1057.24,313.648,1057.48,313.854,1057.76,314.11Z" transform="translate(-1010 -296)" />
</svg>
