<svg xmlns="http://www.w3.org/2000/svg" width="19.969" height="23" viewBox="0 0 19.969 23">
  <defs>
    <style>
      .cls-1 {
        fill: #666;
        fill-rule: evenodd;
      }
    </style>
  </defs>
  <path class="cls-1" d="M259.959,371a2.413,2.413,0,0,1,1.374,2.471c-0.039,3.644-.014,7.29-0.019,10.935a0.425,0.425,0,0,1-.086.465c-0.219.12-.344-0.087-0.493-0.2a1.044,1.044,0,0,0-.4-0.245c-0.721-.1-0.7-0.573-0.7-1.108,0.016-3.339.008-6.677,0.008-10.016,0-.685-0.005-0.689-0.709-0.689-4.836,0-9.673.007-14.51-.01-0.521,0-.716.126-0.715,0.653q0.023,9.249,0,18.5a0.539,0.539,0,0,0,.676.64c2.3-.025,4.606-0.007,6.909-0.016a0.867,0.867,0,0,1,.7.268c0.443,0.462.911,0.9,1.368,1.352h-9.888A2.408,2.408,0,0,1,242,391.453q0.048-9,0-18.01A2.317,2.317,0,0,1,243.479,371h16.48Zm-4.252,23a7.352,7.352,0,0,1-1.645-1.341c-0.968-.947-1.944-1.887-2.916-2.83a0.583,0.583,0,0,1,.25-1.082,1.685,1.685,0,0,1,1.816.338c0.229,0.213.439,0.447,0.68,0.646,0.274,0.226.492,0.137,0.543-.207a2.92,2.92,0,0,0,.006-0.408q0-3.321,0-6.64a0.71,0.71,0,0,1,.734-0.861,0.754,0.754,0,0,1,.937.827c0.007,1.175,0,2.35,0,3.524,0,0.119,0,.239,0,0.358a0.214,0.214,0,0,0,.182.263c0.16,0,.172-0.147.169-0.269a0.841,0.841,0,0,1,.411-0.917,0.785,0.785,0,0,1,1.249.638c0.007,0.084,0,.17,0,0.255a0.226,0.226,0,0,0,.242.268,0.237,0.237,0,0,0,.219-0.238,0.77,0.77,0,0,1,.86-0.76,0.813,0.813,0,0,1,.693.984,1.068,1.068,0,0,0,0,.2c0.037,0.2-.126.512,0.212,0.542,0.322,0.03.214-.277,0.258-0.458a0.634,0.634,0,0,1,.733-0.518,0.576,0.576,0,0,1,.627.615c0,1.43.059,2.864-.033,4.288a3.121,3.121,0,0,1-1.807,2.548,0.759,0.759,0,0,0-.393.231h-4.04Zm-3.987-18.076c1.594,0,3.189.019,4.783-.011,0.467-.009.472,0.212,0.451,0.527-0.019.284,0.115,0.6-.432,0.6q-4.81-.033-9.62,0c-0.53,0-.441-0.277-0.459-0.579-0.02-.349.014-0.556,0.494-0.546C248.53,375.944,250.125,375.924,251.72,375.924Zm0,3.167c1.592,0,3.184.023,4.775-.013,0.521-.012.457,0.253,0.462,0.566s0.033,0.566-.471.562q-4.774-.036-9.549,0c-0.534,0-.482-0.26-0.5-0.6-0.016-.363.047-0.54,0.506-0.532C248.537,379.109,250.129,379.091,251.72,379.091Zm-1.964,3.2c0.919,0,1.838.019,2.757-.008a0.4,0.4,0,0,1,.486.519c-0.02.3,0.062,0.6-.459,0.595q-2.809-.037-5.62,0c-0.5.007-.467-0.246-0.48-0.572-0.014-.363.05-0.56,0.506-0.544C247.882,382.318,248.819,382.3,249.756,382.3Zm-0.058,3.158c0.938,0,1.876.021,2.813-.009a0.4,0.4,0,0,1,.487.518c-0.021.3,0.079,0.608-.449,0.6q-2.841-.035-5.681,0c-0.55.006-.395-0.341-0.421-0.618-0.03-.311.017-0.511,0.437-0.5C247.821,385.473,248.76,385.455,249.7,385.454Zm-1.666,3.169h0.689c0.714,0,.693,0,0.7.7a0.33,0.33,0,0,1-.416.4c-0.706-.018-1.415-0.031-2.12,0-0.533.025-.421-0.306-0.443-0.6-0.026-.34.033-0.556,0.475-0.513C247.286,388.652,247.661,388.623,248.032,388.623Z" transform="translate(-242 -371)"/>
</svg>
