<svg xmlns="http://www.w3.org/2000/svg" width="59" height="57" viewBox="0 0 59 57">
	<defs>

	</defs>
	<path fill="#6253f5" d="M1360.16,292a15.1,15.1,0,0,1,14.86,11.9c0.04,0.164-.04.42,0.19,0.469a0.568,0.568,0,0,0,.43-0.3c1.16-1.138,2.31-2.28,3.47-3.423a6.008,6.008,0,0,1,4.13-1.729c3.87-.176,7.75-0.387,11.63-0.574,2.1-.1,4.2-0.212,6.3-0.268a2.564,2.564,0,0,1,2.83,2.786c-0.16,3.564-.38,7.126-0.56,10.69-0.11,2.053-.26,4.108-0.27,6.163a7.24,7.24,0,0,1-2.37,5.479c-8.42,8.217-16.77,16.5-25.14,24.765a3.08,3.08,0,0,1-2.14,1.045,2.867,2.867,0,0,1-2.18-.923q-7.935-7.835-15.88-15.664c-0.72-.713-1.45-1.423-2.17-2.14a2.689,2.689,0,0,1-.03-4.125c1.32-1.327,2.66-2.627,3.99-3.944a0.528,0.528,0,0,0,.3-0.422c-0.06-.214-0.31-0.146-0.48-0.182a14.936,14.936,0,0,1,1.07-29.489A19.944,19.944,0,0,1,1360.16,292Zm0.08,2.512a12.416,12.416,0,1,0-.03,24.828A12.414,12.414,0,1,0,1360.24,294.51Zm5.97,34.831a1.1,1.1,0,0,0,1.58,1.064,2.25,2.25,0,0,0,.67-0.521q8.055-7.94,16.1-15.881a3.389,3.389,0,0,0,.47-0.552,1.121,1.121,0,0,0-1.66-1.469,6.3,6.3,0,0,0-.49.455q-3.42,3.381-6.85,6.762l-9.24,9.116A1.337,1.337,0,0,0,1366.21,329.341Zm5.94,5.877a1.707,1.707,0,0,0,.98-0.585q5.625-5.56,11.27-11.12a2.1,2.1,0,0,0,.35-0.413,1.111,1.111,0,0,0-.81-1.7,1.351,1.351,0,0,0-1.18.517q-5.64,5.562-11.27,11.119a2.052,2.052,0,0,0-.48.622A1.157,1.157,0,0,0,1372.15,335.218ZM1358.36,312.8a1.257,1.257,0,0,1-.98-0.419c-1.89-1.9-3.79-3.793-5.67-5.706a1.236,1.236,0,0,1,0-1.837,1.267,1.267,0,0,1,1.82.061c1.45,1.42,2.91,2.839,4.3,4.312,0.46,0.483.68,0.4,1.09-.011,2.53-2.527,5.08-5.027,7.63-7.539a1.65,1.65,0,0,1,1.09-.6,1.212,1.212,0,0,1,1.15.565,1.105,1.105,0,0,1,.04,1.306,4.487,4.487,0,0,1-.55.648c-2.88,2.856-5.78,5.707-8.67,8.559A1.627,1.627,0,0,1,1358.36,312.8Z" transform="translate(-1345 -292)" />
</svg>
