<svg xmlns="http://www.w3.org/2000/svg" width="23.969" height="14.312" viewBox="0 0 23.969 14.312">
  <defs>
    <style>
      .cls-1 {
        fill: #666;
        fill-rule: evenodd;
      }
    </style>
  </defs>
  <path class="cls-1" d="M252.015,226.345c-4.584,0-8.742,2.509-11.81,6.585a0.953,0.953,0,0,0,0,1.135c3.068,4.081,7.226,6.59,11.81,6.59s8.742-2.509,11.81-6.585a0.953,0.953,0,0,0,0-1.135C260.757,228.854,256.6,226.345,252.015,226.345Zm0.329,12.193a5.049,5.049,0,1,1,4.707-4.709A5.051,5.051,0,0,1,252.344,238.538Zm-0.152-2.327a2.719,2.719,0,1,1,2.537-2.539A2.714,2.714,0,0,1,252.192,236.211Z" transform="translate(-240.031 -226.344)"/>
</svg>
