<svg version="1.1" id="Capa_1" xmlns="http://www.w3.org/2000/svg" xmlns:xlink="http://www.w3.org/1999/xlink" x="0px" y="0px" viewBox="0 0 491.858 491.858" style="enable-background:new 0 0 491.858 491.858;" xml:space="preserve">
	<g>
		<g>
			<g>
				<path fill="#ffffff" d="M377.472,224.957H201.319v58.718H308.79c-16.032,51.048-63.714,88.077-120.055,88.077
				c-69.492,0-125.823-56.335-125.823-125.824c0-69.492,56.333-125.823,125.823-125.823c34.994,0,66.645,14.289,89.452,37.346
				l42.622-46.328c-34.04-33.355-80.65-53.929-132.074-53.929C84.5,57.193,0,141.693,0,245.928s84.5,188.737,188.736,188.737
				c91.307,0,171.248-64.844,188.737-150.989v-58.718L377.472,224.957L377.472,224.957z" />
				
			</g>
		</g>

	</g>

</svg>
