<svg xmlns="http://www.w3.org/2000/svg" xmlns:xlink="http://www.w3.org/1999/xlink" x="0px" y="0px" width="17.133px" height="17.133px" viewBox="0 0 17.133 17.133" enable-background="new 0 0 17.133 17.133" xml:space="preserve">
	<path fill="#4fc0e8" d="M14.322,6.76c0,0.189-0.067,0.367-0.201,0.502l-6.057,6.057c-0.134,0.134-0.323,0.212-0.514,0.212  c-0.178,0-0.367-0.078-0.502-0.212L3.012,9.28C2.878,9.146,2.811,8.969,2.811,8.778c0-0.189,0.067-0.379,0.201-0.513l1.016-1.004  C4.16,7.127,4.339,7.05,4.529,7.05c0.189,0,0.367,0.077,0.501,0.212l2.521,2.521l4.552-4.54c0.134-0.133,0.312-0.211,0.501-0.211  c0.19,0,0.369,0.078,0.503,0.211l1.015,1.004C14.255,6.381,14.322,6.57,14.322,6.76z M17.133,8.566C17.133,3.837,13.296,0,8.566,0  S0,3.837,0,8.566c0,4.729,3.837,8.566,8.566,8.566S17.133,13.296,17.133,8.566z" />
</svg>
