<svg xmlns="http://www.w3.org/2000/svg" width="52.031" height="61" viewBox="0 0 52.031 61">
  <defs>
    <style>
      .cls-1 {
        fill: #ff3a59;
        fill-rule: evenodd;
      }
    </style>
  </defs>
  <path class="cls-1" d="M519.013,1194.86a11.63,11.63,0,1,0,11.639,11.63A11.65,11.65,0,0,0,519.013,1194.86Zm6.91,9.44-8.338,8.33a1.8,1.8,0,0,1-2.535,0l-3.187-3.18a1.791,1.791,0,1,1,2.535-2.53l1.919,1.91,7.072-7.06A1.79,1.79,0,1,1,525.923,1204.3Zm19.04-11.76,0-.05c-0.027-.59-0.045-1.21-0.055-1.9a6.463,6.463,0,0,0-6.1-6.33c-7.023-.4-12.457-2.68-17.1-7.2l-0.04-.04a3.906,3.906,0,0,0-5.313,0l-0.04.04c-4.642,4.52-10.076,6.8-17.1,7.2a6.462,6.462,0,0,0-6.1,6.33c-0.011.69-.029,1.31-0.055,1.9l0,0.11c-0.137,7.15-.306,16.06,2.675,24.14a30.78,30.78,0,0,0,7.381,11.48,38.492,38.492,0,0,0,14.442,8.53,3.944,3.944,0,0,0,.592.16,4.149,4.149,0,0,0,1.719,0,4,4,0,0,0,.594-0.16,38.588,38.588,0,0,0,14.427-8.54,30.738,30.738,0,0,0,7.381-11.48C545.268,1208.62,545.1,1199.7,544.963,1192.54Zm-25.95,29.16a15.21,15.21,0,1,1,15.224-15.21A15.233,15.233,0,0,1,519.013,1221.7Z" transform="translate(-493 -1176)"/>
</svg>
