<svg xmlns="http://www.w3.org/2000/svg" width="82.5" height="82.5" viewBox="0 0 82.5 82.5">
	<defs>
		<style>
			.cls-1 {
				fill: #fff;
				fill-rule: evenodd;
			}

		</style>
	</defs>
<path id="Forma_1" data-name="Forma 1" class="cls-1" d="M1349.75,506.5a41.25,41.25,0,1,0-69.11,30.387l-0.04.034,1.34,1.128c0.08,0.074.18,0.134,0.27,0.206,0.71,0.589,1.44,1.149,2.19,1.69,0.25,0.176.49,0.351,0.74,0.522q1.2,0.828,2.46,1.572c0.18,0.108.37,0.213,0.55,0.318,0.92,0.524,1.86,1.017,2.82,1.47,0.07,0.033.14,0.063,0.22,0.1a40.756,40.756,0,0,0,9.97,3.158c0.09,0.016.18,0.033,0.28,0.049,1.08,0.188,2.18.338,3.29,0.438,0.14,0.012.27,0.02,0.41,0.032,1.11,0.091,2.23.15,3.36,0.15s2.23-.059,3.33-0.147c0.14-.012.28-0.02,0.42-0.032,1.1-.1,2.19-0.246,3.27-0.43,0.09-.017.19-0.033,0.28-0.051a40.871,40.871,0,0,0,9.83-3.083c0.12-.052.23-0.1,0.35-0.156,0.92-.435,1.83-0.9,2.71-1.4q0.33-.186.66-0.379c0.81-.476,1.6-0.972,2.37-1.5,0.28-.189.55-0.389,0.83-0.587,0.66-.474,1.3-0.963,1.93-1.474,0.14-.113.29-0.21,0.43-0.326l1.37-1.146-0.04-.034A41.161,41.161,0,0,0,1349.75,506.5Zm-79.5,0a38.25,38.25,0,1,1,63.62,28.594,11.6,11.6,0,0,0-1.34-.805l-12.7-6.35a3.326,3.326,0,0,1-1.85-2.989v-4.436c0.29-.363.6-0.774,0.92-1.225a30.333,30.333,0,0,0,3.93-7.685,5.447,5.447,0,0,0,3.13-4.933v-5.318a5.432,5.432,0,0,0-1.34-3.553v-7a12.07,12.07,0,0,0-2.82-8.8c-2.76-3.156-7.24-4.753-13.3-4.753s-10.54,1.6-13.3,4.752a12.145,12.145,0,0,0-2.83,8.8v7a5.477,5.477,0,0,0-1.33,3.554v5.317a5.486,5.486,0,0,0,2.01,4.232,28.357,28.357,0,0,0,4.64,9.583v4.341a3.334,3.334,0,0,1-1.74,2.937l-11.86,6.47a11.014,11.014,0,0,0-1.13.714A38.151,38.151,0,0,1,1270.25,506.5Zm60.69,30.948c-0.53.381-1.06,0.75-1.6,1.1-0.25.162-.5,0.324-0.75,0.482-0.71.438-1.43,0.855-2.17,1.245-0.16.085-.32,0.166-0.48,0.25a38.013,38.013,0,0,1-5.24,2.214c-0.06.021-.12,0.044-0.19,0.065q-1.41.468-2.85,0.828h-0.01c-0.97.24-1.96,0.44-2.95,0.6a0.776,0.776,0,0,1-.08.015c-0.93.152-1.87,0.261-2.81,0.344-0.17.015-.33,0.025-0.5,0.037-0.93.071-1.87,0.116-2.81,0.116s-1.9-.047-2.84-0.117c-0.17-.012-0.33-0.023-0.49-0.038-0.95-.084-1.9-0.2-2.84-0.349l-0.12-.023a37.95,37.95,0,0,1-5.84-1.456c-0.06-.02-0.12-0.041-0.17-0.06-0.95-.321-1.88-0.677-2.8-1.07a0.036,0.036,0,0,0-.02-0.009c-0.86-.373-1.71-0.787-2.55-1.224-0.11-.057-0.23-0.111-0.33-0.169-0.77-.41-1.52-0.852-2.26-1.314-0.22-.138-0.44-0.278-0.65-0.419-0.68-.445-1.35-0.909-2.01-1.4-0.07-.051-0.13-0.1-0.2-0.156l0.15-.081,11.86-6.47a6.336,6.336,0,0,0,3.3-5.571v-5.4l-0.34-.417a24.832,24.832,0,0,1-4.5-9.324l-0.14-.594-0.51-.331a2.5,2.5,0,0,1-1.16-2.088V501.35a2.453,2.453,0,0,1,.84-1.834l0.49-.447v-8.355l-0.01-.2a9.031,9.031,0,0,1,2.1-6.54c2.16-2.472,5.88-3.727,11.04-3.727,5.14,0,8.84,1.245,11.02,3.7a9.191,9.191,0,0,1,2.12,6.571l-0.02,8.552,0.5,0.447a2.452,2.452,0,0,1,.84,1.834v5.318a2.5,2.5,0,0,1-1.78,2.362l-0.74.23-0.24.742a27.873,27.873,0,0,1-3.75,7.548,17.512,17.512,0,0,1-1.1,1.424l-0.37.424v5.549a6.3,6.3,0,0,0,3.51,5.673l12.7,6.349,0.24,0.125C1331.27,537.218,1331.1,537.331,1330.94,537.448Z" transform="translate(-1267.25 -465.25)" />
</svg>
