<svg xmlns="http://www.w3.org/2000/svg" width="87.75" height="82.5" viewBox="0 0 87.75 82.5">
	<defs>
		<style>
			.cls-1 {
				fill: #fff;
				fill-rule: evenodd;
			}

		</style>
	</defs>
	<path id="Forma_1_copy_2" data-name="Forma 1 copy 2" class="cls-1" d="M647,500a2,2,0,0,1,2,2v10a2,2,0,0,1-4,0V502A2,2,0,0,1,647,500Zm-5,5h10a2,2,0,0,1,0,4H642A2,2,0,0,1,642,505Zm2.273-9a38.243,38.243,0,1,0-62.311,38.946,10.676,10.676,0,0,1,1.128-.714l11.861-6.47a3.347,3.347,0,0,0,1.743-2.937v-4.341a28.185,28.185,0,0,1-4.64-9.583,5.458,5.458,0,0,1-2.01-4.232v-5.317a5.467,5.467,0,0,1,1.331-3.554v-7A12.1,12.1,0,0,1,594.2,482c2.765-3.155,7.239-4.752,13.3-4.752s10.536,1.6,13.3,4.753a12.1,12.1,0,0,1,2.825,8.8v7a5.458,5.458,0,0,1,1.33,3.553v5.318a5.444,5.444,0,0,1-3.127,4.933,30.578,30.578,0,0,1-3.924,7.685c-0.321.451-.632,0.862-0.926,1.225v4.436a3.325,3.325,0,0,0,1.848,2.989l12.7,6.35a11.338,11.338,0,0,1,1.339.805A38.345,38.345,0,0,0,643.969,518h3.138a41.311,41.311,0,0,1-11.868,19l0.041,0.034-1.373,1.146c-0.136.116-.286,0.213-0.426,0.326-0.628.511-1.275,1-1.933,1.474-0.275.2-.546,0.4-0.824,0.587-0.771.528-1.564,1.024-2.371,1.5-0.219.129-.438,0.255-0.659,0.379q-1.329.75-2.716,1.4c-0.114.054-.23,0.1-0.344,0.156a40.881,40.881,0,0,1-9.835,3.083c-0.093.018-.188,0.034-0.281,0.051-1.075.184-2.164,0.33-3.267,0.43-0.139.012-.279,0.02-0.418,0.032-1.1.088-2.21,0.147-3.333,0.147s-2.253-.059-3.36-0.15c-0.137-.012-0.272-0.02-0.407-0.032-1.111-.1-2.209-0.25-3.295-0.438l-0.276-.049a40.89,40.89,0,0,1-9.977-3.158c-0.07-.033-0.142-0.063-0.213-0.1-0.961-.453-1.9-0.946-2.82-1.47-0.184-.105-0.369-0.21-0.552-0.318q-1.26-.744-2.463-1.572c-0.247-.171-0.49-0.346-0.733-0.522-0.75-.541-1.487-1.1-2.2-1.69-0.087-.072-0.181-0.132-0.268-0.206l-1.338-1.128,0.039-.034A41.239,41.239,0,1,1,647.391,496h-3.118Zm-59.692,41.1c0.654,0.49,1.326.954,2.007,1.4q0.324,0.212.653,0.419c0.739,0.462,1.489.9,2.256,1.314,0.108,0.058.219,0.112,0.328,0.169,0.84,0.437,1.691.851,2.558,1.224l0.019,0.009q1.375,0.59,2.793,1.07l0.177,0.06a38.12,38.12,0,0,0,5.835,1.456l0.126,0.023c0.938,0.153,1.884.265,2.835,0.349,0.162,0.015.326,0.026,0.489,0.038,0.944,0.07,1.892.117,2.843,0.117s1.876-.045,2.808-0.116c0.168-.012.334-0.022,0.5-0.037,0.942-.083,1.881-0.192,2.812-0.344l0.081-.015c0.99-.163,1.974-0.363,2.946-0.6h0.009q1.444-.359,2.856-0.828c0.065-.021.128-0.044,0.191-0.065a38.124,38.124,0,0,0,5.232-2.214c0.163-.084.327-0.165,0.489-0.25,0.735-.39,1.455-0.807,2.163-1.245,0.253-.158.5-0.32,0.75-0.482,0.541-.352,1.075-0.721,1.6-1.1,0.162-.117.327-0.23,0.488-0.351-0.08-.042-0.159-0.084-0.24-0.125l-12.7-6.349a6.307,6.307,0,0,1-3.507-5.673V519.4l0.372-.424c0.329-.377.711-0.869,1.1-1.424a27.743,27.743,0,0,0,3.744-7.548l0.24-.742,0.746-.23a2.5,2.5,0,0,0,1.771-2.362v-5.318a2.454,2.454,0,0,0-.835-1.834l-0.5-.447,0.013-8.552a9.182,9.182,0,0,0-2.119-6.571c-2.175-2.454-5.88-3.7-11.019-3.7-5.159,0-8.876,1.255-11.045,3.727a9.038,9.038,0,0,0-2.094,6.54l0.014,0.2v8.355l-0.5.447a2.449,2.449,0,0,0-.836,1.834v5.318a2.486,2.486,0,0,0,1.154,2.088l0.511,0.331,0.137,0.594a25.03,25.03,0,0,0,4.5,9.324l0.345,0.417,0,5.4a6.343,6.343,0,0,1-3.308,5.571l-11.86,6.47-0.144.081C584.449,537,584.514,537.052,584.581,537.1Z" transform="translate(-566.25 -465.25)" />
</svg>
