<svg xmlns="http://www.w3.org/2000/svg" width="55" height="61" viewBox="0 0 55 61">
  <defs>
    <style>
      .cls-1 {
        fill: #ff3a59;
        fill-rule: evenodd;
      }
    </style>
  </defs>
  <path class="cls-1" d="M669.9,1176h1.2c2.051,0.74,4.1,1.49,6.153,2.23q9.237,3.315,18.48,6.63a2.248,2.248,0,0,1,1.733,2.03c0.164,2.1.392,4.19,0.463,6.29a72.434,72.434,0,0,1-.805,14.83,42.43,42.43,0,0,1-4.978,14.4,29.545,29.545,0,0,1-14.96,13.04,31.084,31.084,0,0,1-5.605,1.55h-2.165c-0.116-.03-0.231-0.06-0.349-0.08a27.935,27.935,0,0,1-11.812-5.06,31.242,31.242,0,0,1-9.975-12.47,50.745,50.745,0,0,1-4.23-19.6,90.88,90.88,0,0,1,.472-12.9,2.234,2.234,0,0,1,1.625-2q5.967-2.115,11.927-4.27Zm0.627,42.84c2.786,0,5.573.01,8.359,0a2.833,2.833,0,0,0,3.1-2.87q0.064-5.655,0-11.31a2.787,2.787,0,0,0-2.91-2.86,0.654,0.654,0,0,1-.786-0.8c0.023-1.76.03-3.53,0-5.3a5.532,5.532,0,0,0-4.836-5.26,34.526,34.526,0,0,0-5.284-.06,5.639,5.639,0,0,0-5.474,5.85c0.1,1.6.008,3.21,0.022,4.82a0.611,0.611,0,0,1-.718.75,2.855,2.855,0,0,0-2.372,1.08,3.366,3.366,0,0,0-.622,2.19c0,3.51-.006,7.03,0,10.54,0,2.1,1.157,3.23,3.288,3.23C665.039,1218.85,667.785,1218.84,670.531,1218.84Zm-0.045-17.06c-1.142,0-2.285-.02-3.427.01a0.547,0.547,0,0,1-.684-0.64c0.019-1.71-.012-3.42.015-5.12a1.891,1.891,0,0,1,2.03-1.96c1.4-.01,2.805-0.02,4.208,0a1.86,1.86,0,0,1,1.987,1.88c0.045,1.76.009,3.53,0.017,5.29a0.491,0.491,0,0,1-.6.55C672.851,1201.77,671.668,1201.78,670.486,1201.78Zm-1.234,10.61c0-.34-0.018-0.67,0-1.01a2.272,2.272,0,0,0-.669-1.96,2.325,2.325,0,0,1,.266-3.31,2.488,2.488,0,0,1,3.375.07,2.351,2.351,0,0,1,.087,3.37,1.761,1.761,0,0,0-.567,1.46c0.033,1.09.014,2.18,0,3.27a0.7,0.7,0,0,1-.822.84c-1.632.07-1.675,0.03-1.678-1.6C669.251,1213.14,669.251,1212.77,669.252,1212.39Z" transform="translate(-643 -1176)"/>
</svg>
