<svg xmlns="http://www.w3.org/2000/svg" xmlns:xlink="http://www.w3.org/1999/xlink" version="1.1"   x="0px" y="0px" viewBox="0 0 512 512" style="enable-background:new 0 0 512 512;" xml:space="preserve" width="512" height="512">
  <path fill="#e5edf0"
    d="M464.87,48.2H47.13C21.65,48.2,0,68.76,0,95.33v321.34c0,16.02,7.87,29.86,19.72,38.33l177.47-177.47  c5.86-5.86,15.36-5.86,21.22,0l53.66,53.66l117.92-117.93c2.82-2.81,6.63-4.39,10.61-4.39c3.98,0,7.79,1.58,10.61,4.39L512,314.05  V95.33C512,68.76,490.35,48.2,464.87,48.2z M127.47,238.87c-34.85,0-63.2-28.35-63.2-63.2c0-34.85,28.35-63.2,63.2-63.2  c34.85,0,63.2,28.35,63.2,63.2C190.67,210.52,162.32,238.87,127.47,238.87z M127.47,142.47c-18.31,0-33.2,14.89-33.2,33.2  c0,18.3,14.89,33.2,33.2,33.2c18.3,0,33.2-14.9,33.2-33.2C160.67,157.36,145.77,142.47,127.47,142.47z M400.6,245.08L282.67,363.01  c-5.85,5.85-15.35,5.85-21.21,0l-53.66-53.66L53.35,463.8h411.52c25.48,0,47.13-20.56,47.13-47.13v-60.19L400.6,245.08z"/>

</svg>
