<svg xmlns="http://www.w3.org/2000/svg" width="17.22" height="17.219" viewBox="0 0 17.22 17.219">
  <defs>
    <style>
      .cls-1 {
        fill: #fff;
        fill-rule: evenodd;
      }
    </style>
  </defs>
  <path class="cls-1" d="M1507.71,19.576v1.009c-0.03.221-.05,0.442-0.08,0.663a8.606,8.606,0,0,1-7.04,7.313c-0.33.058-.66,0.071-0.98,0.129h-1.01a1.413,1.413,0,0,0-.15-0.028,8.418,8.418,0,0,1-3.99-1.336,8.59,8.59,0,0,1-3.8-8.87,8.6,8.6,0,0,1,9.63-6.9,8.2,8.2,0,0,1,4.48,2.048,8.51,8.51,0,0,1,2.81,4.993C1507.64,18.923,1507.65,19.252,1507.71,19.576Zm-10.69,1.48a3.533,3.533,0,1,1,4.17,0,6.591,6.591,0,0,1,3.94,3.629,7.588,7.588,0,1,0-12.05-.008A6.639,6.639,0,0,1,1497.02,21.056Zm2.08,6.626a7.053,7.053,0,0,0,1.11-.082,7.541,7.541,0,0,0,4.07-1.969,0.157,0.157,0,0,0,.05-0.2,5.514,5.514,0,0,0-6.28-3.592,5.437,5.437,0,0,0-4.17,3.586,0.16,0.16,0,0,0,.04.2A7.586,7.586,0,0,0,1499.1,27.682Zm-2.52-9.48a2.52,2.52,0,1,0,2.52-2.526A2.54,2.54,0,0,0,1496.58,18.2Z" transform="translate(-1490.5 -11.469)"/>
</svg>
