<svg xmlns="http://www.w3.org/2000/svg" height="511pt" version="1.1" viewBox="1 -39 511.99998 511" width="511pt">
	<g>
		<path d="M 457.1875 80.90625 L 262.398438 80.90625 L 213.589844 20.769531 C 203.167969 8.085938 187.878906 0.5 171.460938 0.5 L 54.699219 0.5 C 24.6875 0.5 0 25.414062 0 55.425781 L 0 378.296875 C 0 408.195312 24.6875 433.113281 54.699219 433.113281 L 457.300781 433.113281 C 487.3125 433.113281 512 408.195312 512 378.183594 L 512 135.152344 C 511.886719 105.140625 487.199219 80.90625 457.1875 80.90625 Z M 22.648438 378.183594 L 22.648438 55.425781 C 22.648438 37.871094 37.144531 23.148438 54.699219 23.148438 L 171.460938 23.148438 C 180.972656 23.148438 190.03125 27.679688 196.035156 35.152344 L 233.066406 80.90625 L 112.570312 80.90625 C 82.671875 80.90625 57.757812 105.140625 57.757812 135.152344 L 57.757812 410.460938 L 54.699219 410.460938 C 37.144531 410.460938 22.648438 395.738281 22.648438 378.183594 Z M 489.238281 378.183594 C 489.238281 395.625 474.742188 410.460938 457.1875 410.460938 L 80.40625 410.460938 L 80.40625 135.152344 C 80.40625 117.710938 95.128906 103.554688 112.570312 103.554688 L 457.1875 103.554688 C 474.628906 103.554688 489.238281 117.710938 489.238281 135.152344 Z M 489.238281 378.183594 " style=" stroke:none;fill-rule:nonzero;fill:rgb(0%,0%,0%);fill-opacity:1;" />
		<path d="M 339.070312 254.855469 L 292.183594 305.027344 L 292.183594 181.359375 C 292.183594 175.128906 287.085938 170.035156 280.859375 170.035156 C 274.628906 170.035156 269.535156 175.128906 269.535156 181.359375 L 269.535156 305.027344 L 222.988281 254.859375 C 218.683594 250.328125 211.664062 249.988281 207.019531 254.292969 C 202.488281 258.59375 202.261719 265.730469 206.453125 270.261719 L 272.816406 341.492188 C 274.96875 343.757812 278.027344 345.117188 281.085938 345.117188 C 284.140625 345.117188 287.199219 343.757812 289.351562 341.492188 L 355.714844 270.261719 C 360.019531 265.730469 359.679688 258.480469 355.035156 254.292969 C 350.394531 250.101562 343.257812 250.214844 339.070312 254.855469 Z M 339.070312 254.855469 " style=" stroke:none;fill-rule:nonzero;fill:rgb(0%,0%,0%);fill-opacity:1;" />
	</g>
</svg>
