<svg xmlns="http://www.w3.org/2000/svg" width="9.625" height="7.125" viewBox="0 0 9.625 7.125">
  <defs>
    <style>
      .cls-1 {
        fill: #4fc0e8;
        fill-rule: evenodd;
      }
    </style>
  </defs>
  <path id="Shape_3_copy" data-name="Shape 3 copy" class="cls-1" d="M10.559,13.24a1.087,1.087,0,0,1,.826.341l1.341,1.337c0.228,0.227.341,0.224,0.564,0q1.881-1.881,3.764-3.761a1.185,1.185,0,0,1,1.174-.369,1.121,1.121,0,0,1,.609,1.778,12.622,12.622,0,0,1-1.058,1.087Q15.86,15.579,13.934,17.5a1.312,1.312,0,0,1-.732.422,1.076,1.076,0,0,1-.968-0.289q-1.249-1.23-2.479-2.478a1.064,1.064,0,0,1-.227-1.231A1.075,1.075,0,0,1,10.559,13.24Z" transform="translate(-9.438 -10.781)"/>
</svg>
