<?xml version="1.0" encoding="iso-8859-1"?>
<!-- Generator: Adobe Illustrator 17.1.0, SVG Export Plug-In . SVG Version: 6.00 Build 0)  -->
<!DOCTYPE svg PUBLIC "-//W3C//DTD SVG 1.1//EN" "http://www.w3.org/Graphics/SVG/1.1/DTD/svg11.dtd">
<svg version="1.1" id="Capa_1" xmlns="http://www.w3.org/2000/svg" xmlns:xlink="http://www.w3.org/1999/xlink" x="0px" y="0px"
	 viewBox="0 0 286.676 286.676" style="enable-background:new 0 0 286.676 286.676;" xml:space="preserve">
<path fill="#fff" d="M271.676,241.907H165.758l23.836-24.333c0.245-0.249,0.458-0.596,0.689-0.853l92.734-92.774
	c2.07-2.07,3.211-4.865,3.211-7.809c0-2.945-1.141-5.712-3.211-7.782l-90.372-90.375c-2.071-2.07-4.834-3.212-7.778-3.212
	c-2.945,0-5.708,1.14-7.778,3.21L70.399,124.669c-0.486,0.486-0.91,1.008-1.283,1.554L6.444,188.896
	c-8.44,8.437-8.61,22.331-0.384,30.97l39.908,42.12c3.908,4.106,9.808,7.413,15.749,8.963c1.378,0.477,2.846,0.757,4.373,0.81
	c0.868,0.092,1.728,0.149,2.57,0.149h54.401c0.752,0,1.52,0,2.294,0h146.32c8.284,0,15-6.716,15-15
	C286.676,248.623,279.96,241.907,271.676,241.907z M35.152,208.619c-0.853-0.896-1.323-1.999-1.457-3.159l-0.641-0.663l0.646-0.641
	c0.143-1.198,0.643-2.355,1.547-3.259l60.567-60.566c2.11-2.11,5.544-2.091,7.631,0.042l57.257,58.512
	c2.087,2.133,2.082,5.618-0.011,7.745l-34.048,34.565c-0.221,0.224-0.476,0.714-0.739,0.714H66.869c-0.283,0-0.551-0.53-0.785-0.776
	L35.152,208.619z"/>

</svg>
