<svg  xmlns="http://www.w3.org/2000/svg" xmlns:xlink="http://www.w3.org/1999/xlink" x="0px" y="0px"
	 width="36px" height="22.906px" viewBox="0 0 36 22.906" enable-background="new 0 0 36 22.906" xml:space="preserve">
  <path fill="#DB4437" d="M22.453,11.719c0-0.75-0.078-1.328-0.188-1.906H11.453l0,0v3.938h6.5c-0.266,1.672-1.969,4.938-6.5,4.938
	c-3.906,0-7.094-3.234-7.094-7.234s3.188-7.234,7.094-7.234c2.234,0,3.719,0.953,4.563,1.766L19.125,3c-2-1.875-4.578-3-7.672-3
	C5.125,0,0,5.125,0,11.453s5.125,11.453,11.453,11.453C18.063,22.906,22.453,18.266,22.453,11.719z M36,9.813h-3.266V6.547h-3.281
	v3.266h-3.266v3.281h3.266v3.266h3.281v-3.266H36V9.813z"/>
</svg>
