<svg  xmlns="http://www.w3.org/2000/svg" xmlns:xlink="http://www.w3.org/1999/xlink" x="0px" y="0px"
	 width="20px" height="26px" viewBox="0 0 20 26" enable-background="new 0 0 20 26" xml:space="preserve">
  <path fill="#BD081C" d="M0,9.328c0,2.047,0.813,5.031,3.047,5.703c0.078,0.016,0.188,0.047,0.266,0.047
	c0.516,0,0.813-1.438,0.813-1.844c0-0.484-1.234-1.516-1.234-3.531c0-4.188,3.188-7.156,7.313-7.156
	c3.547,0,6.172,2.016,6.172,5.719c0,2.766-1.109,7.953-4.703,7.953c-1.297,0-2.406-0.938-2.406-2.281
	c0-1.969,1.375-3.875,1.375-5.906c0-1.234-0.703-2.234-2.016-2.234c-1.781,0-2.875,2-2.875,3.578c0,0.875,0.109,1.844,0.5,2.641
	c-0.719,3.094-2.188,7.703-2.188,10.891c0,0.984,0.141,1.953,0.234,2.938L4.438,26l0.219-0.078c2.625-3.594,2.531-4.297,3.719-9
	c0.641,1.219,2.297,1.875,3.609,1.875c5.531,0,8.016-5.391,8.016-10.25C20,3.375,15.531,0,10.625,0C5.281,0,0,3.563,0,9.328z"/>
</svg>
