<svg xmlns="http://www.w3.org/2000/svg" width="52.5" height="52.5" viewBox="0 0 52.5 52.5">
  <defs>
    <style>
      .cls-1 {
        fill: #fff;
        fill-rule: evenodd;
      }
    </style>
  </defs>
  <path id="_" data-name="" class="cls-1" d="M1370,1842.5a25.158,25.158,0,0,0,4.34,14.41,26.626,26.626,0,0,0,11.36,9.61,18.877,18.877,0,0,1,.47-5.97q0.465-2.115,3.4-14.3l-0.12-.47a12.592,12.592,0,0,1-.47-1.64,10.1,10.1,0,0,1-.23-2.11,7.862,7.862,0,0,1,1.46-4.86,4.371,4.371,0,0,1,3.58-1.94,3.146,3.146,0,0,1,2.58,1.18,4.383,4.383,0,0,1,.93,2.81,9.988,9.988,0,0,1-.41,2.58q-0.405,1.515-1.05,3.51a31.335,31.335,0,0,0-.88,3.17,3.852,3.852,0,0,0,.82,3.57,4.3,4.3,0,0,0,3.4,1.47q3.63,0,5.98-4.05a19.445,19.445,0,0,0,2.34-9.9,9.457,9.457,0,0,0-2.93-7.21q-2.925-2.745-8.09-2.75a12.382,12.382,0,0,0-9.31,3.69,12.245,12.245,0,0,0-3.58,8.85,7.771,7.771,0,0,0,1.76,5.15,1.413,1.413,0,0,1,.35,1.41,5.835,5.835,0,0,0-.29,1.06,6.468,6.468,0,0,0-.18,1.05,0.907,0.907,0,0,1-1.4.7q-5.4-2.22-5.39-10.07,0-6.21,5.04-11.31,5.025-5.1,13.71-5.1a16.512,16.512,0,0,1,11.95,4.51,14.277,14.277,0,0,1,4.69,10.61q0,7.845-3.93,12.89a12.384,12.384,0,0,1-10.25,5.04q-4.575,0-6.33-3.29l-1.87,7.27a34.328,34.328,0,0,1-2.7,5.63,26.044,26.044,0,0,0,7.5,1.05A26.262,26.262,0,1,0,1370,1842.5h0Z" transform="translate(-1370 -1816.25)"/>
</svg>
