<svg xmlns="http://www.w3.org/2000/svg" width="52.5" height="45" viewBox="0 0 52.5 45">
  <defs>
    <style>
      .cls-1 {
        fill: #fff;
        fill-rule: evenodd;
      }
    </style>
  </defs>
  <path id="_" data-name="" class="cls-1" d="M856.5,1842.2a2.486,2.486,0,0,1-1.172-1.75,3.566,3.566,0,0,1,1.289-2v-0.11a25.173,25.173,0,0,0,2.52-2,9.68,9.68,0,0,0,1.816-2.63,8.693,8.693,0,0,0,.938-4.05,10.29,10.29,0,0,0-2.7-6.79h1.524l7.031-3.87h-15.7a17.293,17.293,0,0,0-11.016,3.4,10.429,10.429,0,0,0-4.1,8.32,9.131,9.131,0,0,0,2.812,6.68,10.392,10.392,0,0,0,7.852,3.05h0.469a4.023,4.023,0,0,0-.118,1.17,6.189,6.189,0,0,0,.938,3.04q-6.329.48-9.961,2.7-4.922,2.925-4.922,7.62,0,3.63,3.516,6.32t10.078,2.7q7.615,0,11.953-3.46t4.336-8.14a8.26,8.26,0,0,0-.879-3.75,9.233,9.233,0,0,0-1.758-2.58c-0.586-.55-1.465-1.29-2.637-2.23Zm-11.484-17.93a4.037,4.037,0,0,1,3.4-1.52q2.694,0,4.688,3.28a12.746,12.746,0,0,1,1.757,6.21,4.777,4.777,0,0,1-1.171,3.52,4.448,4.448,0,0,1-3.282,1.29q-2.929,0-4.8-3.17a12.058,12.058,0,0,1-1.641-5.97,5.6,5.6,0,0,1,1.055-3.64h0Zm11.074,34.11a10.008,10.008,0,0,1-5.684,1.4,12.451,12.451,0,0,1-6.8-1.64,4.954,4.954,0,0,1-2.578-4.34q0-3.27,4.453-4.92a19.266,19.266,0,0,1,5.86-.93,3.585,3.585,0,0,1,.527.05,2.4,2.4,0,0,0,.41.06,28.332,28.332,0,0,1,4.688,3.64,4.233,4.233,0,0,1,1.172,2.93A4.35,4.35,0,0,1,856.09,1858.38ZM877.359" transform="translate(-834 -1819)"/>
</svg>
