<svg xmlns="http://www.w3.org/2000/svg" width="48.75" height="48.75" viewBox="0 0 48.75 48.75">
  <defs>
    <style>
      .cls-1 {
        fill: #fff;
        fill-rule: evenodd;
      }
    </style>
  </defs>
  <path id="_" data-name="ï" class="cls-1" d="M222.973,168.027a5.886,5.886,0,0,0-4.317-1.777H182.094A6.067,6.067,0,0,0,176,172.344v36.689a5.726,5.726,0,0,0,1.777,4.19A5.871,5.871,0,0,0,182.094,215h36.562a5.878,5.878,0,0,0,4.317-1.777,5.734,5.734,0,0,0,1.777-4.19V172.344A5.886,5.886,0,0,0,222.973,168.027Zm-12.442,22.6a10.185,10.185,0,1,1-2.983-7.173A9.786,9.786,0,0,1,210.531,190.625Zm8.125-10.156h-6.093a1.8,1.8,0,0,1-2.032-2.031v-6.094a1.8,1.8,0,0,1,2.032-2.031h6.093a1.8,1.8,0,0,1,2.032,2.031v6.094a1.8,1.8,0,0,1-2.032,2.031h0Zm-36.435,30.469a2.2,2.2,0,0,1-1.524-.572,1.873,1.873,0,0,1-.634-1.46V186.563h6.728a14.4,14.4,0,0,0-.635,4.062,14.306,14.306,0,0,0,14.219,14.219,13.832,13.832,0,0,0,10.156-4.19,13.623,13.623,0,0,0,4.063-10.029,14.035,14.035,0,0,0-.508-4.062h6.6v22.343a1.742,1.742,0,0,1-1.905,2.032H182.221Z" transform="translate(-176 -166.25)"/>
</svg>
