<svg xmlns="http://www.w3.org/2000/svg" width="45" height="45" viewBox="0 0 45 45">
  <defs>
    <style>
      .cls-1 {
        fill: #fff;
        fill-rule: evenodd;
      }
    </style>
  </defs>
  <path id="_" data-name="" class="cls-1" d="M1109.87,1819a3.955,3.955,0,0,0-2.76,1,3.228,3.228,0,0,0-1.11,2.52v37.61a4,4,0,0,0,3.87,3.87h37.5a3.362,3.362,0,0,0,2.58-1.17,3.922,3.922,0,0,0,1.05-2.7v-37.61a3.313,3.313,0,0,0-1.05-2.52,3.618,3.618,0,0,0-2.58-1h-37.5Zm3.63,37.5v-20.04h6.45v20.04h-6.45Zm0-26.48a3.419,3.419,0,0,1,3.52-3.52,3.218,3.218,0,0,1,2.46,1,3.534,3.534,0,0,1,.93,2.52,3.284,3.284,0,0,1-.99,2.4,3.445,3.445,0,0,1-2.52.99,3.217,3.217,0,0,1-2.46-.99,3.361,3.361,0,0,1-.94-2.4h0Zm23.55,26.48v-11.02q0-4.335-3.28-4.33a3.327,3.327,0,0,0-3.28,2.34,4,4,0,0,0-.23,1.64v11.37h-6.45v-20.04h6.45v2.81a7.137,7.137,0,0,1,11.19-1.05q2.055,2.22,2.05,6.56v11.72h-6.45Z" transform="translate(-1106 -1819)"/>
</svg>
