<svg xmlns="http://www.w3.org/2000/svg" width="55.313" height="45" viewBox="0 0 55.313 45">
  <defs>
    <style>
      .cls-1 {
        fill: #fff;
        fill-rule: evenodd;
      }
    </style>
  </defs>
  <path id="_" data-name="" class="cls-1" d="M614.75,1828.15a10.373,10.373,0,0,0,5.039-6.33,21,21,0,0,1-7.266,2.81,10.832,10.832,0,0,0-8.2-3.63,11.2,11.2,0,0,0-11.367,11.37,10.2,10.2,0,0,0,.235,2.58,30.732,30.732,0,0,1-23.321-11.84,11.27,11.27,0,0,0-1.523,5.62,10.645,10.645,0,0,0,5.039,9.5,10.653,10.653,0,0,1-5.156-1.41v0.12a10.77,10.77,0,0,0,2.636,7.2,11.428,11.428,0,0,0,6.5,3.93,13.334,13.334,0,0,1-3.047.47,13.782,13.782,0,0,1-2.109-.24,10.705,10.705,0,0,0,3.984,5.57,11.389,11.389,0,0,0,6.563,2.29,22.056,22.056,0,0,1-14.063,4.92,24.168,24.168,0,0,1-2.7-.24,31.285,31.285,0,0,0,17.344,5.16q14.648,0,23.5-10.02t8.848-22.32v-1.41a22.148,22.148,0,0,0,5.625-5.86,19.441,19.441,0,0,1-6.563,1.76h0Z" transform="translate(-566 -1821)"/>
</svg>
