<svg xmlns="http://www.w3.org/2000/svg" width="44" height="41" viewBox="0 0 44 41">
  <defs>
    <style>
      .cls-1 {
        fill: #f89a7e;
        fill-rule: evenodd;
      }
    </style>
  </defs>
  <path id="Forma_1" data-name="Forma 1" class="cls-1" d="M13.478,24.261H39.411L44,8.175H37.247L34.823,0.82,24.712,4.039l1.383,4.136H25.619l-2.5-7.355L13.011,4.039l1.383,4.136H8.989L7.866,3.766A4.963,4.963,0,0,0,3.089,0H0V1.843H3.089a3.09,3.09,0,0,1,3,2.3l4.966,19.085a3.974,3.974,0,0,0-1.7,3.254,4.126,4.126,0,0,0,4.122,4.048H38.756V28.688H13.478A2.214,2.214,0,1,1,13.478,24.261ZM33.611,3.113L35.3,8.078H28L26.966,5.23Zm-11.7,0L23.6,8.078H16.3L15.265,5.23ZM41.566,9.921L38.011,22.427H12.733L9.456,9.921H41.566ZM30.522,33.274a3.863,3.863,0,1,0,0,7.725,3.863,3.863,0,0,0,3.933-3.862A3.92,3.92,0,0,0,30.522,33.274Zm0,5.979a2.117,2.117,0,1,1,0-4.233,2.1,2.1,0,0,1,2.155,2.117A2.16,2.16,0,0,1,30.522,39.254ZM16.1,33.274a3.863,3.863,0,1,0,3.933,3.863A3.92,3.92,0,0,0,16.1,33.274Zm0,5.979a2.117,2.117,0,1,1,2.155-2.117A2.159,2.159,0,0,1,16.1,39.254Z"/>
</svg>
