<svg  xmlns="http://www.w3.org/2000/svg" xmlns:xlink="http://www.w3.org/1999/xlink" x="0px" y="0px"
	 width="23.156px" height="28px" viewBox="0 0 23.156 28" enable-background="new 0 0 23.156 28" xml:space="preserve">
  <path fill="#FF0000" d="M14.75,19.438c0-0.688-0.203-1.047-0.609-1.047c-0.234,0-0.469,0.109-0.703,0.344v4.703
	c0.234,0.234,0.469,0.344,0.703,0.344c0.406,0,0.609-0.344,0.609-1.047V19.438z M20.031,19.453c0-0.703-0.234-1.063-0.703-1.063
	s-0.703,0.359-0.703,1.063v0.719h1.406V19.453z M4.938,16.047v8.891H3.375v-8.891H1.734v-1.469h4.875v1.469H4.938z M9.438,24.938
	v-0.844c-0.563,0.641-1.094,0.953-1.594,0.953c-0.453,0-0.781-0.188-0.906-0.578c-0.078-0.234-0.125-0.594-0.125-1.141v-6.109h1.391
	v5.688c0,0.328,0,0.5,0.016,0.547c0.031,0.219,0.141,0.328,0.328,0.328c0.281,0,0.578-0.219,0.891-0.656v-5.906h1.391v7.719H9.438z
	 M16.141,22.625c0,0.719-0.031,1.234-0.141,1.563c-0.172,0.563-0.563,0.859-1.109,0.859c-0.5,0-0.984-0.281-1.453-0.859v0.75h-1.391
	V14.578h1.391v3.391c0.453-0.563,0.938-0.844,1.453-0.844c0.547,0,0.938,0.297,1.109,0.875c0.109,0.313,0.141,0.828,0.141,1.547
	V22.625z M21.422,22.469c0,0.453,0,0.766-0.031,0.906c-0.031,0.313-0.156,0.594-0.328,0.844c-0.375,0.547-0.953,0.828-1.688,0.828
	s-1.281-0.266-1.688-0.797c-0.297-0.375-0.453-0.984-0.453-1.813v-2.703c0-0.828,0.141-1.422,0.438-1.813
	c0.406-0.531,0.953-0.797,1.672-0.797c0.703,0,1.25,0.266,1.656,0.797c0.281,0.391,0.422,0.984,0.422,1.813v1.609h-2.797v1.359
	c0,0.719,0.234,1.078,0.719,1.078c0.344,0,0.547-0.188,0.625-0.563C19.984,23.141,20,22.828,20,22.266h1.422V22.469z M11.922,8.203
	c0,0.719-0.203,1.094-0.672,1.094c-0.453,0-0.672-0.375-0.672-1.094V4.922c0-0.719,0.219-1.078,0.672-1.078
	c0.469,0,0.672,0.359,0.672,1.078V8.203z M23.156,19.938c0-1.813,0-3.719-0.406-5.469c-0.281-1.234-1.297-2.141-2.5-2.281
	c-2.875-0.313-5.781-0.313-8.672-0.313s-5.797,0-8.656,0.313c-1.219,0.141-2.219,1.047-2.516,2.281C0.016,16.219,0,18.125,0,19.938
	l0,0c0,1.797,0,3.719,0.406,5.469c0.281,1.234,1.297,2.141,2.5,2.266C5.781,28,8.688,28,11.578,28s5.797,0,8.672-0.328
	c1.203-0.125,2.203-1.031,2.5-2.266C23.141,23.656,23.156,21.734,23.156,19.938z M7.563,0L6.5,4.109L5.391,0H3.734
	C4.063,0.969,4.406,1.953,4.75,2.922c0.5,1.453,0.813,2.547,0.953,3.313v4.234h1.563V6.234L9.156,0H7.563z M13.344,5.203
	c0-0.828-0.141-1.438-0.438-1.828c-0.391-0.531-0.938-0.797-1.656-0.797c-0.703,0-1.25,0.266-1.641,0.797
	c-0.297,0.391-0.438,1-0.438,1.828v2.734c0,0.828,0.141,1.438,0.438,1.844c0.391,0.531,0.938,0.797,1.641,0.797
	c0.719,0,1.266-0.266,1.656-0.797c0.297-0.391,0.438-1.016,0.438-1.844V5.203z M18.578,2.672h-1.422v5.953
	c-0.313,0.453-0.609,0.672-0.891,0.672c-0.188,0-0.297-0.125-0.328-0.344c-0.016-0.031-0.016-0.219-0.016-0.547V2.672H14.5v6.156
	c0,0.563,0.047,0.938,0.125,1.172c0.141,0.391,0.469,0.578,0.922,0.578c0.516,0,1.047-0.313,1.609-0.969v0.859h1.422V2.672z"/>
</svg>
