<svg xmlns="http://www.w3.org/2000/svg" width="138" height="152" viewBox="0 0 138 152">
  <defs>
    <style>
      .cls-1 {
        fill-rule: evenodd;
      }
    </style>
  </defs>
  <path class="cls-1" d="M1031.11,537.615A7.365,7.365,0,0,1,1025.6,540H902.4a7.313,7.313,0,0,1-7.366-8.073l9.516-102.27h0a8.436,8.436,0,0,1,8.342-7.587h15.827a36.691,36.691,0,0,1,73.194,0h13.2a8.542,8.542,0,0,1,8.34,7.587l9.52,102.271A7.314,7.314,0,0,1,1031.11,537.615Zm-65.8-144.374a31.487,31.487,0,0,0-31.339,28.828h62.677A31.487,31.487,0,0,0,965.311,393.241Zm62.439,139.172-9.52-102.272a3.278,3.278,0,0,0-3.12-2.831H912.889a3.235,3.235,0,0,0-3.122,2.832h0l-9.516,102.271a2.074,2.074,0,0,0,2.146,2.346h123.2A2.068,2.068,0,0,0,1027.75,532.413ZM983,471a4,4,0,1,1,4-4A4,4,0,0,1,983,471Zm-40,0a4,4,0,1,1,4-4A4,4,0,0,1,943,471Zm3.5,22h33a2.5,2.5,0,0,1,0,5h-33A2.5,2.5,0,0,1,946.5,493Z" transform="translate(-895 -388)"/>
</svg>
