<svg  xmlns="http://www.w3.org/2000/svg" xmlns:xlink="http://www.w3.org/1999/xlink" x="0px" y="0px"
	 width="24.625px" height="20px" viewBox="0 0 24.625 20" enable-background="new 0 0 24.625 20" xml:space="preserve">
  <path fill="#1DA1F2" d="M24.625,2.375c-0.906,0.391-1.891,0.672-2.906,0.781c1.047-0.625,1.844-1.609,2.219-2.781
	c-0.969,0.578-2.063,1-3.203,1.219C19.813,0.609,18.5,0,17.047,0C14.25,0,12,2.266,12,5.047c0,0.391,0.047,0.781,0.125,1.156
	C7.938,5.984,4.203,3.984,1.719,0.922c-0.438,0.75-0.688,1.609-0.688,2.547c0,1.75,0.891,3.297,2.25,4.203
	C2.453,7.641,1.672,7.406,1,7.031c0,0.016,0,0.047,0,0.063c0,2.453,1.734,4.484,4.047,4.953c-0.422,0.109-0.875,0.172-1.328,0.172
	c-0.328,0-0.641-0.031-0.953-0.078c0.641,2,2.5,3.453,4.719,3.5C5.75,17,3.578,17.797,1.219,17.797
	c-0.422,0-0.813-0.016-1.219-0.063C2.234,19.172,4.891,20,7.75,20c9.281,0,14.359-7.688,14.359-14.359c0-0.219,0-0.438-0.016-0.656
	C23.078,4.266,23.938,3.375,24.625,2.375z"/>
</svg>
