<svg xmlns="http://www.w3.org/2000/svg" width="0" height="0">
	<defs>
		<symbol id="admin" viewBox="0 -16 384 384">
			<path d="m80 0h-80v352h384v-352zm-48 32h48v40h-48zm320 288h-320v-216h320zm0-248h-240v-40h240zm0 0" />
			<path d="m64 192h32v96h-32zm0 0" />
			<path d="m120 160h32v128h-32zm0 0" />
			<path d="m232 224h32v64h-32zm0 0" />
			<path d="m288 136h32v152h-32zm0 0" />
		</symbol>
		<symbol id="desktop" viewBox="0 0 230.359 230.359">
			<path d="M210.322,5.604H20.023C8.982,5.604,0,14.587,0,25.628v142.519c0,11.048,8.982,20.037,20.023,20.037h62.14v21.572H58.241
c-4.142,0-7.5,3.358-7.5,7.5c0,4.142,3.358,7.5,7.5,7.5h31.422h51.01h31.432c4.143,0,7.5-3.358,7.5-7.5c0-4.142-3.357-7.5-7.5-7.5
h-23.932v-21.572h62.149c11.049,0,20.037-8.988,20.037-20.037V25.628C230.359,14.587,221.371,5.604,210.322,5.604z M15,51.128
h200.359v91.521H15V51.128z M20.023,20.604h190.299c2.777,0,5.037,2.254,5.037,5.024v10.501H15V25.628
C15,22.858,17.253,20.604,20.023,20.604z M133.173,209.755h-36.01v-21.572h36.01V209.755z M210.322,173.183h-69.649h-51.01h-69.64
c-2.77,0-5.023-2.259-5.023-5.037V157.65h200.359v10.497C215.359,170.924,213.099,173.183,210.322,173.183z" />
		</symbol>
		<symbol id="mobile" viewBox="0 0 26.802 26.802">
			<path d="M19.039,0H7.761C6.683,0,5.812,0.875,5.812,1.952v22.899c0,1.076,0.871,1.951,1.949,1.951h11.277
c1.078,0,1.951-0.875,1.951-1.951V1.952C20.99,0.875,20.118,0,19.039,0z M10.617,1.186h5.568c0.141,0,0.254,0.21,0.254,0.471
c0,0.26-0.113,0.471-0.254,0.471h-5.568c-0.141,0-0.253-0.211-0.253-0.471C10.364,1.396,10.476,1.186,10.617,1.186z
M13.401,24.875c-0.687,0-1.246-0.558-1.246-1.246s0.56-1.244,1.246-1.244s1.245,0.557,1.245,1.244
C14.646,24.317,14.086,24.875,13.401,24.875z M19.528,20.607H7.274V3.294h12.254V20.607z" />
		</symbol>
	</defs>
</svg>